<?xml version="1.0" encoding="UTF-8" standalone="no"?>
<!-- Created with Inkscape (http://www.inkscape.org/) -->

<svg
   xmlns:dc="http://purl.org/dc/elements/1.1/"
   xmlns:cc="http://creativecommons.org/ns#"
   xmlns:rdf="http://www.w3.org/1999/02/22-rdf-syntax-ns#"
   xmlns:svg="http://www.w3.org/2000/svg"
   xmlns="http://www.w3.org/2000/svg"
   xmlns:sodipodi="http://sodipodi.sourceforge.net/DTD/sodipodi-0.dtd"
   xmlns:inkscape="http://www.inkscape.org/namespaces/inkscape"
   version="1.1"
   id="svg3905"
   width="1366"
   height="1203"
   viewBox="0 0 1366 1203"
   sodipodi:docname="Figure 04.svg"
   inkscape:version="0.92.2 5c3e80d, 2017-08-06">
  <metadata
     id="metadata3911">
    <rdf:RDF>
      <cc:Work
         rdf:about="">
        <dc:format>image/svg+xml</dc:format>
        <dc:type
           rdf:resource="http://purl.org/dc/dcmitype/StillImage" />
        <dc:title></dc:title>
      </cc:Work>
    </rdf:RDF>
  </metadata>
  <defs
     id="defs3909" />
  <sodipodi:namedview
     pagecolor="#ffffff"
     bordercolor="#666666"
     borderopacity="1"
     objecttolerance="10"
     gridtolerance="10"
     guidetolerance="10"
     inkscape:pageopacity="0"
     inkscape:pageshadow="2"
     inkscape:window-width="1680"
     inkscape:window-height="995"
     id="namedview3907"
     showgrid="false"
     inkscape:zoom="0.38945827"
     inkscape:cx="1219.8347"
     inkscape:cy="784.40454"
     inkscape:window-x="0"
     inkscape:window-y="27"
     inkscape:window-maximized="1"
     inkscape:current-layer="svg3905"
     showguides="false" />
  <g
     id="g167">
    <path
       d="m 1009.7988,12.953125 c -10.30525,-0.08808 -21.086,0.687352 -28.71677,2.292969 -42.6528,8.97473 -77.70846,37.103325 -94.85156,76.109375 -7.34056,16.702141 -10.38874,30.344821 -11.28906,50.511721 l -0.625,14 -49.5,5.09179 -49.5,5.0918 -6.5,-6.20898 c -16.67209,-15.9246 -33.15591,-25.34263 -54.22266,-30.98047 -28.63545,-7.66335 -58.79482,-4.6717 -85.27734,8.45703 -18.90612,9.37272 -32.50585,20.76762 -44.44532,37.24414 -3.31017,4.56805 -6.58942,9.09 -7.28711,10.04688 -1.09263,1.49849 -12.21617,2.85574 -80.21484,9.79296 -43.4204,4.42975 -79.834,7.92138 -80.91992,7.75977 -1.67677,-0.24954 -2.23211,-1.80042 -3.67969,-10.29297 C 400.16058,117.89612 345.38335,56.554937 273.35352,35.748047 c -19.42258,-5.6105 -34.15149,-7.636625 -55.53711,-7.640625 -20.55489,-0.0042 -33.30557,1.55121 -51.4668,6.28125 C 94.498294,53.102132 38.551073,112.05175 23.251953,185.16602 4.6026638,274.29075 48.889195,364.97064 130.31641,404.39453 c 21.03895,10.18624 39.13942,15.53512 62.78906,18.55274 16.10137,2.05449 43.1535,1.50144 57.71094,-1.17969 5.225,-0.96232 10.61619,-1.78312 11.98242,-1.82422 2.47097,-0.0744 2.77075,1.02489 56.69336,208.42578 29.81461,114.675 54.23392,208.6125 54.26562,208.75 0.0317,0.1375 -0.5382,0.25 -1.26562,0.25 -0.72742,0 -5.33992,1.97763 -10.25,4.39453 -15.85933,7.8065 -27.17044,19.01987 -34.40235,34.10547 -5.48808,11.448 -7.34137,19.8628 -7.26757,33 0.11989,21.3444 6.6397,36.97566 21.70312,52.03906 13.09431,13.09436 25.40944,19.10682 43.93359,21.44922 25.26624,3.1951 54.34424,-9.21701 67.67774,-28.88867 2.27663,-3.3588 3.93382,-4.87919 4.92969,-4.52539 1.27196,0.452 228.98289,126.21694 229.77734,126.90624 0.15265,0.1325 -1.16893,4.4669 -2.93555,9.6309 -2.94679,8.6138 -3.21724,10.4621 -3.27734,22.3886 -0.04,7.9367 0.47125,15.1422 1.3125,18.5 6.997,27.9286 29.83173,50.1396 57.61133,56.0371 2.20555,0.4683 10.08672,0.7207 17.51172,0.5606 11.36966,-0.2452 14.76242,-0.7068 21.5,-2.9199 34.90771,-11.4661 56.61117,-47.7045 50.11132,-83.668 -0.84389,-4.6691 -1.21315,-8.7761 -0.82226,-9.1269 0.67015,-0.6014 191.68743,-67.8829 192.72463,-67.8829 0.2674,0 0.4863,0.5879 0.4863,1.3067 0,2.5197 12.8938,27.2682 18.1699,34.875 29.0209,41.8406 72.7777,67.6441 123.6075,72.8906 62.2641,6.4266 124.2652,-23.3364 158.4707,-76.0723 44.6089,-68.77482 33.861,-159.2465 -25.6329,-215.75972 -36.6588,-34.82232 -87.877,-51.4238 -138.0566,-44.7461 -6.0177,0.8008 -10.9984,1.35447 -11.0684,1.23047 -0.07,-0.124 -7.1124,-33.07461 -15.6484,-73.22461 l -15.5195,-73 8.1191,-8.5 c 12.6583,-13.251 20.848,-28.04942 25.2539,-45.63672 2.385,-9.5211 2.4057,-35.14296 0.029,-44.60156 -7.5754,-30.19792 -27.5353,-54.56512 -55.1465,-67.32227 -4.1457,-1.91544 -8.936,-3.7618 -10.6445,-4.10351 -1.8067,-0.36134 -3.4883,-1.50264 -4.0176,-2.72852 -0.5005,-1.15926 -10.1293,-45.53242 -21.3984,-98.60742 -11.2691,-53.075 -20.7108,-97.44132 -20.9824,-98.5918 -0.4318,-1.82926 0.2867,-2.30871 5.7343,-3.82031 28.0863,-7.79349 54.5414,-26.5096 71.8067,-50.80273 7.8931,-11.10603 16.4893,-29.62544 20.1484,-43.40235 3.0501,-11.48403 3.1589,-12.58762 3.2149,-32.88281 0.054,-19.69389 -0.1124,-21.6696 -2.6778,-31.77344 -6.4756,-25.504785 -17.4847,-44.739809 -36.1875,-63.226559 -19.4146,-19.19029 -41.3199,-30.641 -69.1113,-36.125 -5.737,-1.132062 -13.465,-1.722512 -21.4805,-1.791016 z m -1.75,1.527344 c 54.6787,0.424603 106.2265,35.926677 124.0586,90.888671 6.2124,19.14751 7.8778,43.87644 4.2422,63 -10.1712,53.50147 -50.5479,94.45298 -104.0332,105.51172 -9.4384,1.9515 -32.2766,2.75639 -41.49999,1.46289 C 961.46789,271.22786 930.65495,255.44791 912.22656,235.0957 874.00143,192.88007 865.94998,134.58613 891.50977,85.097656 906.90326,55.293036 934.55601,31.77787 966.88281,21 c 12.73675,-4.246476 25.72011,-6.351229 38.56059,-6.513672 0.8693,-0.011 1.7375,-0.01216 2.6054,-0.0059 z M 214.50195,29.560547 c 3.43877,-0.04367 6.87903,0.0093 10.31446,0.160156 96.75407,4.2476 174.93636,75.938377 187.61132,172.033207 2.12454,16.10709 1.43356,43.55818 -1.48828,59.13867 -15.81128,84.31229 -81.3977,147.28238 -166.62304,159.97461 -12.78238,1.90362 -42.62225,1.82306 -55.5,-0.15039 C 124.76467,410.90121 70.171149,371.10147 41.412109,313.25586 4.4982837,239.00779 18.007809,150.7604 75.542969,90.300781 111.47448,52.542912 162.92038,30.215587 214.50195,29.560547 Z m 467.45703,97.255863 c 9.23513,-0.065 18.58986,0.57155 24.85743,1.93359 81.6437,17.74248 121.31014,108.69917 78.37695,179.71875 -19.03347,31.48496 -52.34844,52.55353 -89.90234,56.85547 -4.93691,0.56554 -11.22461,0.97305 -13.97461,0.90625 -22.28484,-0.54166 -45.95461,-8.05129 -64.82032,-20.56445 -9.30431,-6.17133 -22.51644,-18.81002 -29.61718,-28.33399 -17.31965,-23.2302 -26.09917,-54.36943 -23.07618,-81.8418 3.66323,-33.2908 19.48801,-62.87012 43.9336,-82.12109 15.53514,-12.23396 30.05059,-19.26958 50.08008,-24.27344 5.79191,-1.44696 14.90744,-2.21426 24.14257,-2.27929 z m 191.96875,35.53125 c 1.20639,0.0162 2.00076,1.97098 3.15821,7.77148 0.85055,4.2625 1.42874,7.87134 1.28515,8.01953 -0.14358,0.14819 -18.29651,5.88569 -40.33984,12.75 -22.04332,6.86431 -40.25354,12.48047 -40.4668,12.48047 -0.21325,0 -1.86835,-3.36911 -3.67773,-7.48633 -1.80939,-4.11722 -5.71366,-11.16953 -8.67578,-15.67187 -2.96211,-4.50234 -5.27523,-8.26644 -5.14063,-8.36524 0.3507,-0.25741 91.92126,-9.52404 93.85742,-9.49804 z m 7.69336,29.61914 c 0.71784,-0.0543 2.641,3.00779 4.27344,6.80468 6.50089,15.12042 21.40983,36.02269 31.92578,44.75782 l 4.38086,3.64062 -5.50586,6.84961 c -3.02914,3.76738 -24.09558,30.02461 -46.8125,58.34961 -22.71692,28.325 -41.5878,51.81064 -41.93554,52.19141 -0.60311,0.66041 -46.69741,-38.75806 -48.49415,-41.47071 -0.57779,-0.87234 0.66468,-3.4865 3.75977,-7.91406 9.04659,-12.94127 15.61965,-28.57877 19.25586,-45.80664 2.24629,-10.6426 2.33695,-35.0703 0.16992,-45.60937 l -1.46094,-7.10743 39.56836,-12.29296 c 21.76292,-6.76119 40.15716,-12.33828 40.875,-12.39258 z m -309.79101,1.57226 c 0.30984,-0.0128 0.47811,-0.0126 0.49609,0.008 0.26703,0.26704 -0.68929,3.37422 -2.12695,6.90429 -3.3557,8.23967 -6.98169,22.54695 -7.89844,31.16797 l -0.71875,6.75 -3.63281,-0.13476 c -1.99842,-0.0741 -34.76918,-1.50833 -72.82422,-3.18555 L 415.93359,232 415.625,220.93359 c -0.16996,-6.08614 -0.0151,-11.29091 0.3457,-11.5664 0.92653,-0.70751 146.25428,-15.43159 155.85938,-15.82813 z m 138.17383,41.81446 c -0.0289,-0.004 -0.0487,0.008 -0.0527,0.0449 -0.0357,0.32228 -0.0582,0.64673 -0.0801,0.9707 0.167,-0.27138 0.34235,-0.53903 0.4961,-0.81641 -0.10398,-0.0383 -0.27651,-0.18873 -0.36328,-0.19921 z m -292.53516,2.45507 c 6.44146,0.10499 33.66795,1.1665 65.89063,2.58399 36.82587,1.62 69.54453,2.95294 72.70703,2.96094 l 5.75,0.0156 0.002,7.75 c 0.006,14.67937 4.29322,32.49936 11.43945,47.55859 10.49977,22.12617 28.0202,40.80412 50.41797,53.74805 l 7.88672,4.5586 -6.55469,15.1914 c -4.60334,10.66944 -7.0212,15.16139 -8.12304,15.08789 -0.86291,-0.0576 -15.29336,-5.81249 -32.06836,-12.78906 -16.775,-6.97656 -64.71809,-26.74645 -106.53907,-43.93359 l -76.03711,-31.25 3.3418,-10.00391 c 4.26193,-12.75904 7.04657,-25.43388 8.73438,-39.75391 0.73477,-6.23405 1.50421,-11.50226 1.71093,-11.70898 0.0258,-0.0258 0.5212,-0.0306 1.44141,-0.0156 z m 508.88672,12.95508 6.98047,4.79688 c 3.83893,2.63794 6.90134,5.13683 6.80664,5.55273 -0.0947,0.4159 -16.45052,31.35586 -36.34766,68.75586 -19.89715,37.4 -36.47081,68.31501 -36.83008,68.70117 -0.52763,0.5671 -26.43664,-21.18975 -33.45312,-28.09179 -1.7349,-1.70662 0.0249,-4.05471 45.51953,-60.74414 z m 23.31055,15.21875 c 0.16045,-0.0146 0.34123,-0.0149 0.54687,0.004 1.37096,0.11789 3.81995,0.96975 8.34766,2.78125 4.95116,1.98093 9.7346,3.60156 10.6289,3.60156 0.89431,0 1.62696,0.11938 1.62696,0.26563 0,0.14625 -10.34683,40.04241 -22.99219,88.6582 -12.64536,48.61578 -23.10786,88.47669 -23.25,88.58008 -0.41898,0.30476 -49.22617,-42.60507 -49.5918,-43.59961 -0.26018,-0.70773 70.09779,-134.10283 73.71289,-139.75586 0.19565,-0.30593 0.48935,-0.49129 0.97071,-0.53516 z m 27.61328,8.83594 7.51758,1.35352 c 4.13508,0.74428 13.23359,1.43069 20.21872,1.52539 l 12.7012,0.17187 0.541,3.5 c 0.2977,1.925 5.0453,44.45 10.5488,94.5 5.5036,50.05 10.2264,92.35 10.4942,94 l 0.4863,3 -9.2363,2.20508 c -12.463,2.97681 -28.9296,11.33429 -38.98049,19.7832 -4.26011,3.58108 -7.86011,6.50981 -8,6.50781 -0.85967,-0.009 -52.65085,-45.68403 -52.72265,-46.49609 -0.0486,-0.55 10.37893,-41.28634 23.17187,-90.52539 z m 55.2031,0.94531 21.0821,99.05274 c 11.5951,54.4788 21.007,99.08184 20.916,99.11914 -0.091,0.0373 -1.9641,-0.27336 -4.1641,-0.69141 -2.2,-0.41806 -8.1625,-0.78666 -13.25,-0.81836 -5.0875,-0.0317 -9.25,-0.37816 -9.25,-0.76953 0,-0.39136 -4.725,-43.31356 -10.5,-95.38281 -5.775,-52.06925 -10.5,-95.79686 -10.5,-97.17383 0,-1.98453 0.5859,-2.59027 2.832,-2.91992 z M 400.31836,304.5625 c 0.25081,-0.27884 214.6208,87.59541 215.26758,88.24219 0.15377,0.15377 -9.01565,21.60633 -20.375,47.67187 -11.35935,26.06553 -21.19198,48.64927 -21.85156,50.18555 l -1.19922,2.79297 -52.92188,-40.31641 c -29.10718,-22.17389 -71.82187,-54.67782 -94.92187,-72.23047 -23.1,-17.55264 -43.20475,-32.89589 -44.67579,-34.09765 l -2.67382,-2.18555 5.62109,-8.37891 c 3.09195,-4.608 8.28485,-13.55195 11.53906,-19.87695 3.25421,-6.325 6.04009,-11.6384 6.19141,-11.80664 z m 371.47656,25.75195 24.25977,21.18164 c 13.34346,11.64952 24.41297,21.29938 24.59765,21.44532 0.18468,0.14594 -4.92698,6.82621 -11.35742,14.8457 -6.43043,8.01948 -12.01228,14.58203 -12.4043,14.58203 -0.81506,0 -41.44573,-58.00305 -40.91992,-58.41602 0.18948,-0.14877 3.82745,-3.27861 8.08399,-6.95507 z m -397.47851,18.11328 52.5,39.96094 c 28.875,21.97857 72.83483,55.37798 97.68945,74.22071 24.85461,18.8426 45.2171,34.70182 45.25,35.24218 0.0329,0.54037 -1.62695,4.91701 -3.68945,9.72656 -2.0625,4.80958 -3.975,8.73381 -4.25,8.72071 -0.275,-0.0131 -6.60328,-5.28974 -14.0625,-11.72656 -7.45922,-6.43682 -48.84752,-41.85313 -91.97266,-78.70313 -43.12514,-36.85 -79.99686,-68.4391 -81.9375,-70.19726 l -3.52734,-3.19727 2,-2.02344 z m 375.96875,0.12891 c 0.14256,0.1715 9.68201,13.82951 21.19922,30.35156 l 20.93945,30.04102 -15.12695,18.69922 c -8.31975,10.28442 -15.31753,18.84513 -15.55274,19.02539 -0.2352,0.18026 -12.12773,-4.49426 -26.42773,-10.38867 -21.72158,-8.95357 -26.12003,-11.10341 -26.72852,-13.06641 -0.40058,-1.29231 -1.88832,-13.14961 -3.30469,-26.34961 -1.41638,-13.2 -2.81502,-25.40943 -3.10937,-27.13086 l -0.53516,-3.1289 7.83789,-1.73438 c 10.77093,-2.38172 21.98564,-6.59256 32.0625,-12.04102 4.66733,-2.52357 8.60354,-4.44885 8.7461,-4.27734 z m -383.72461,9.20313 47.95117,41.05468 c 26.37365,22.57998 69.74486,59.69436 96.3789,82.47657 26.63416,22.7822 48.34314,41.6822 48.24219,42 -0.10095,0.31779 -14.67143,33.87812 -32.37695,74.57812 -17.70553,40.7 -32.47288,74.31091 -32.81641,74.69141 -0.34352,0.3805 -38.93071,-61.94449 -85.75,-138.5 -75.62264,-123.65265 -84.94445,-139.33459 -83.5,-140.47461 0.89429,-0.70582 6.20596,-4.64137 11.80274,-8.7461 5.59678,-4.10473 14.65068,-11.87704 20.12109,-17.27148 z m 270.80468,1.93945 c 0.93377,0.0443 4.26747,0.93691 8.05665,2.17383 10.98086,3.58451 22.9596,5.49609 34.43164,5.49609 h 9.77539 l 0.57226,4.75 c 0.31513,2.6125 1.29753,13.34082 2.1836,23.8418 0.88607,10.50098 1.45857,19.97661 1.27148,21.05664 -0.30653,1.76948 -3.72057,0.57451 -34.51172,-12.0918 -18.79367,-7.731 -34.43387,-14.32444 -34.75781,-14.65039 -0.50269,-0.5058 11.50693,-29.31751 12.73047,-30.54101 0.0297,-0.0297 0.11465,-0.0415 0.24804,-0.0352 z m 187.34571,18.23437 c 1.24238,-0.76784 36.70781,30.32264 36.27344,31.79883 -0.1826,0.62044 -5.96532,11.70555 -12.84961,24.63281 -6.8843,12.92726 -12.60819,23.60356 -12.72071,23.72461 -0.11251,0.12106 -8.10522,-11.11658 -17.75976,-24.9707 l -17.55274,-25.18945 11.82813,-14.70313 c 6.50613,-8.08753 12.25773,-14.96942 12.78125,-15.29297 z m -203.32617,17.57618 c 0.37837,-0.4311 71.60046,28.72488 72.6875,29.75585 0.41634,0.39489 2.58479,21.93772 4.81835,47.87305 l 4.06055,47.1543 -18.12695,22.53711 c -9.97018,12.3958 -18.21362,22.51533 -18.31836,22.48633 -0.10474,-0.0285 -20.21445,-15.33571 -44.68945,-34.01563 -24.475,-18.67995 -44.35984,-34.49069 -44.1875,-35.13672 0.37005,-1.3872 43.29421,-100.12831 43.75586,-100.65429 z m -302.08789,2.04296 c 1.43578,1.62082 171.51953,280.98321 171.51953,281.72071 0,0.5406 -15.34208,36.22086 -34.09375,79.28906 -18.75167,43.0683 -34.38917,78.7868 -34.75,79.375 -0.44738,0.7294 -2.56472,0.46346 -6.65625,-0.83594 -7.12125,-2.2616 -24.77127,-3.36822 -32.07813,-2.01172 l -5.07812,0.94336 -54.24414,-208.92773 C 294.08186,512.19535 269.81744,418.06669 269.99414,417.92969 c 0.17671,-0.13701 5.49727,-1.99757 11.82227,-4.13477 6.325,-2.13719 17.28191,-6.73784 24.34961,-10.22265 7.0677,-3.48481 12.97662,-6.19351 13.13086,-6.01954 z m 476.39062,16.83985 c 0.3458,0.0133 8.59408,11.46087 18.33008,25.4375 l 17.70117,25.41211 -2.20117,4.05469 c -1.211,2.2305 -2.65117,4.0459 -3.20117,4.0332 -0.55,-0.0127 -7.525,-2.72135 -15.5,-6.01758 -7.975,-3.29623 -21.08872,-8.71575 -29.14063,-12.04492 l -14.64062,-6.05469 14.01172,-17.42187 c 7.70609,-9.5824 14.29482,-17.41174 14.64062,-17.39844 z m 74.55664,2.20508 c 0.34798,0.0398 0.65933,0.30559 1.03711,0.64257 2.51925,2.24723 49.92721,43.38352 50.31445,43.65821 0.23295,0.16524 -9.67425,39.08174 -11.38476,44.7207 -0.29197,0.9625 -1.06245,1.70956 -1.71289,1.66016 -0.65043,-0.0494 -13.19171,-5.11193 -27.86914,-11.25 -19.15649,-8.0112 -27.21703,-11.86556 -28.56641,-13.66016 -1.03388,-1.375 -3.80968,-5.28919 -6.16992,-8.69726 l -4.29102,-6.19532 13.82422,-26.02539 c 11.12911,-20.95126 13.31046,-25.0261 14.81836,-24.85351 z m -160.13672,15.95507 c 2.94983,0.21376 45.25673,16.96377 46.93555,18.64258 0.41553,0.41553 -8.23413,11.94205 -19.2207,25.61524 -10.98658,13.67319 -20.10395,24.9887 -20.25977,25.14453 -0.4672,0.4672 -8.01497,-68.28946 -7.61523,-69.3711 0.0106,-0.0286 0.065,-0.0381 0.16015,-0.0312 z m 53.17969,21.08594 c 0.0855,-0.12643 13.95844,5.45401 30.83008,12.40039 l 30.67578,12.62891 -1.83985,3.10156 c -1.01233,1.70505 -18.64444,34.71208 -39.18164,73.34961 -20.5372,38.6375 -37.59156,70.24047 -37.89843,70.23047 -1.08307,-0.0361 -15.18771,-11.15705 -15.61328,-12.31055 -0.59911,-1.6239 -11.44336,-97.10519 -11.44336,-100.75586 0,-2.35923 4.50709,-8.60264 22.15625,-30.6875 12.18681,-15.24968 22.22895,-27.8306 22.31445,-27.95703 z m 164.16016,12.51367 24.43554,21.26758 c 13.43857,11.69748 24.59735,21.39932 24.79883,21.5586 0.20149,0.15929 -1.42908,2.97915 -3.625,6.26757 -2.19592,3.28841 -4.9899,8.03652 -6.20703,10.55079 -1.21714,2.51426 -2.50961,4.53162 -2.87305,4.48242 -0.36343,-0.0492 -11.23515,-4.50352 -24.16015,-9.89844 -19.53451,-8.15375 -23.45184,-10.12104 -23.21485,-11.66016 0.1568,-1.01836 2.65983,-11.01398 5.56446,-22.21093 z m 127.99803,7.75196 c 35.2456,0.33436 68.8838,20.16465 85.4024,53.96484 7.9608,16.28933 9.4516,23.0373 9.3906,42.5 -0.043,13.6531 -0.42,17.82717 -2.1836,24.19727 -9.1414,33.0193 -34.1461,58.57448 -66.957,68.42968 -7.5158,2.2575 -11.0158,2.68529 -24.2813,2.96289 -16.7416,0.3503 -21.7796,-0.38836 -35,-5.13086 -53.92827,-19.34549 -79.20432,-82.64724 -53.38476,-133.69726 9.54328,-18.86882 26.75788,-35.52003 45.83006,-44.33203 13.3544,-6.1701 27.3919,-9.02537 41.1836,-8.89453 z m -217.46092,0.70117 c 0.28079,0.0198 0.65102,0.46734 1.32617,1.35937 0.79238,1.04693 1.45515,2.2418 1.47265,2.6543 0.0421,0.99367 -1.14175,0.92601 -2.86328,-0.16406 -0.83356,-0.52781 -1.12473,-1.59088 -0.72265,-2.63867 0.3155,-0.82218 0.50629,-1.23074 0.78711,-1.21094 z m -2.62305,8.60547 c 1.07453,0.1879 4.41922,1.5379 7.43164,3 5.35689,2.60002 6.00815,3.41872 29.64648,37.33594 l 24.16797,34.67968 -7.0039,26.82032 -7.00391,26.82226 -55.64258,16.27344 c -30.6032,8.9508 -55.86562,16.26114 -56.14062,16.24414 -1.43295,-0.0863 -15.51619,-11.79808 -15.69336,-13.05078 -0.11417,-0.8073 17.45354,-34.5418 39.03906,-74.9668 33.271,-62.30937 39.54299,-73.44782 41.19922,-73.1582 z m 25.08398,10.39844 c 3.31247,0.57535 47.37214,19.3236 47.38086,20.21484 0.006,0.57457 -1.84791,8.24492 -4.11719,17.04492 -2.26927,8.8 -4.45016,16.35536 -4.84765,16.78906 -0.39748,0.4337 -9.30096,-11.49127 -19.78516,-26.5 -10.4842,-15.00874 -18.95322,-27.40523 -18.82031,-27.54687 0.0192,-0.0205 0.0826,-0.0205 0.18945,-0.002 z m -285.29297,7.77929 3.08204,2.32031 c 11.48667,8.65312 84.22089,64.01087 84.80273,64.54297 0.39716,0.3631 -2.67329,4.92578 -6.82422,10.13867 -4.15093,5.21281 -7.89327,9.83644 -8.31641,10.27344 -0.54545,0.5632 -70.5451,-57.99305 -80.36914,-67.23047 -0.43332,-0.40745 1.10466,-5.08365 3.41797,-10.39257 z m 339.60938,15.20899 c 1.93019,0.14018 9.76981,3.01258 22.23828,8.16406 12.27307,5.07075 23.08576,9.51094 24.02734,9.86719 1.60512,0.60729 1.59565,0.98848 -0.16015,6.09179 -3.22934,9.3862 -4.36057,19.67613 -3.8418,34.95703 l 0.48633,14.30079 -11.59766,3.32812 c -6.37875,1.8309 -12.05692,3.50324 -12.61718,3.71484 -0.5603,0.2115 -7.40204,-8.77409 -15.20508,-19.96679 l -14.1875,-20.34961 5.00586,-19.41797 c 2.75312,-10.67983 5.17848,-19.94225 5.39062,-20.58203 0.0308,-0.0928 0.1852,-0.12745 0.46094,-0.10742 z m -350.91211,11.42968 c 0.90456,-1.01635 78.51353,65.19251 78.35547,66.84571 -0.0609,0.6376 -23.20912,29.92302 -51.43946,65.07812 -28.23032,35.1551 -53.22389,66.26717 -55.54101,69.13867 -3.09753,3.8387 -4.47131,4.8977 -5.18945,4 -1.41031,-1.7629 -31.36855,-50.94655 -31.94141,-52.43945 -0.43374,-1.1303 63.97122,-150.61787 65.75586,-152.62305 z m 139.66016,2.02735 c 0.0541,0.0149 0.0856,0.058 0.0977,0.13086 0.16089,0.9735 1.57275,16.60066 3.13672,34.72656 1.56398,18.1259 2.78193,32.99216 2.70703,33.03516 -0.0749,0.0427 -8.72894,-6.5091 -19.23242,-14.5586 l -19.09766,-14.63476 16.09766,-20.16993 c 9.94487,-12.46005 15.47928,-18.75241 16.29102,-18.52929 z m 10.81835,36.16015 c 0.0547,0.0315 0.11486,0.16368 0.17774,0.4043 0.25152,0.9625 0.25152,2.5375 0,3.5 -0.25153,0.9625 -0.45898,0.175 -0.45898,-1.75 0,-1.44375 0.11725,-2.24863 0.28124,-2.1543 z m 187.48829,0.17188 c 0.70148,0.0196 21.83344,30.41048 22.19921,31.92578 0.19602,0.8118 -5.40008,2.92901 -16.19921,6.12891 -18.92434,5.6076 -16.99041,5.13443 -17.03711,4.17773 -0.0758,-1.5527 10.55899,-42.24542 11.03711,-42.23242 z m -234.01563,7.0039 c 1.6914,0.0309 6.79285,3.59554 21.08789,14.52735 13.29995,10.1709 20.65464,16.44573 21.07813,17.98633 0.35774,1.3013 0.96948,7.07101 1.36132,12.82031 0.70254,10.3068 0.67943,10.46922 -1.65039,11.66992 -1.29961,0.6698 -3.53023,2.30622 -4.95898,3.63672 l -2.59766,2.41992 -25.09179,-21.29101 c -13.79947,-11.7102 -25.11609,-21.59871 -25.15039,-21.97461 -0.0539,-0.5908 12.01852,-15.97002 15.38867,-19.60352 0.1193,-0.12862 0.29157,-0.19581 0.5332,-0.19141 z m 47.2461,1.41407 c 0.23428,-0.2343 0.98999,5.30866 1.67968,12.31836 0.68969,7.0098 1.48992,13.75859 1.7793,14.99609 0.28939,1.2375 0.0999,2.25 -0.42188,2.25 -0.92761,0 -3.8783,-28.72325 -3.0371,-29.56445 z m -68.25,24.22461 c 0.43763,-0.4613 12.0415,8.7637 25.78515,20.5 l 24.98828,21.33984 -2.75976,5.5 c -5.42488,10.8127 -6.12055,22.36244 -2.00196,33.21484 l 1.78907,4.7168 -66.34961,48.04883 c -36.49247,26.4272 -66.93053,48.26996 -67.64063,48.53906 -1.15156,0.4362 -4.84154,-5.22049 -24.53711,-37.62109 l -2.24609,-3.69336 56.08789,-69.85352 c 30.84876,-38.4188 56.44712,-70.2301 56.88477,-70.6914 z m 314.7207,7.76367 c 1.0349,0.005 1.43933,0.41598 1.98633,1.16406 0.72148,0.9867 1.3125,2.13413 1.3125,2.54883 0,0.4147 -3.81355,2.73169 -8.47266,5.15039 l -8.4707,4.39844 -2.60352,-3.93555 c -1.43209,-2.1641 -2.458,-4.03746 -2.2793,-4.16406 0.1787,-0.1266 4.57266,-1.48222 9.76368,-3.01172 5.06012,-1.49091 7.43308,-2.15653 8.76367,-2.15039 z m -243.28906,3.42383 c 0.58757,0.20428 1.64506,3.88104 2.10351,8.27929 0.41327,3.9648 0.30313,6.86636 -0.27344,7.22266 -0.85743,0.53 -2.24218,-7.93137 -2.24218,-13.69727 0,-1.1444 0.11585,-1.70247 0.30078,-1.79882 0.0347,-0.0181 0.0721,-0.0184 0.11133,-0.006 z m 216.05078,4.39258 c 1.1655,0.0385 2.48406,1.27627 4.42382,4.0957 l 3.10352,4.51172 -27.24609,13.95898 c -37.67465,19.3026 -35.74414,18.38065 -35.74414,17.09375 0,-0.6272 1.42868,-6.62256 3.17578,-13.32226 l 3.17578,-12.18165 23.4043,-6.8125 c 12.87221,-3.74729 24.21895,-7.0267 25.21484,-7.2871 0.16163,-0.0423 0.32569,-0.0621 0.49219,-0.0566 z m 34.90234,4.91406 c 0.0452,0.007 0.0776,0.0212 0.0957,0.0449 0.12552,0.1648 2.17376,3.22578 4.55078,6.80078 5.21682,7.8459 16.78424,19.51698 24.27149,24.48828 l 5.47069,3.63086 -6.43944,11.69141 c -3.54159,6.4294 -6.74844,11.99404 -7.12695,12.36719 -0.63531,0.62629 -35.34121,-48.24098 -35.9668,-50.64258 -0.23784,-0.91315 13.74408,-8.59291 15.14453,-8.38086 z m -237.89062,1.02734 c 0.4917,0.0696 1.4922,0.81831 3.52539,2.31836 1.86371,1.375 2.96271,2.43161 2.44336,2.34961 -0.51935,-0.0824 -2.18086,-0.33731 -3.69336,-0.56641 -1.90821,-0.289 -2.75,-1.00791 -2.75,-2.34961 0,-1.21215 -0.0171,-1.82157 0.47461,-1.75195 z m -0.47071,6.31836 c 8.75216,0 10.08648,0.26948 16.17578,3.26758 8.49089,4.1805 16.75625,12.87486 19.91211,20.94726 1.68772,4.317 2.27567,7.94156 2.32227,14.28516 0.0553,7.53 -0.29611,9.26229 -3.08985,15.17969 -5.66708,12.0034 -15.71249,20.11394 -28.125,22.71094 -6.44515,1.3484 -9.21516,1.29945 -15.69921,-0.27735 -7.33381,-1.7835 -15.10836,-6.3833 -20.01953,-11.8457 -17.72746,-19.7172 -11.70431,-49.16777 12.49023,-61.07227 5.92645,-2.916 7.32632,-3.19531 16.0332,-3.19531 z m 216.19336,4.14258 c 0.38395,0.2262 9.30509,12.77607 19.82422,27.88867 l 19.125,27.47656 -22.75,41.2461 c -12.51243,22.685 -23.24487,41.99084 -23.85156,42.90234 -0.95668,1.4373 -5.74993,-1.88102 -36.11524,-25.01172 -19.25652,-14.6687 -36.22875,-27.62787 -37.71484,-28.79687 l -2.70117,-2.125 6.24219,-23.71485 6.24414,-23.71484 35.5,-18.28125 c 19.525,-10.0544 35.8133,-18.09544 36.19726,-17.86914 z m -69.375,0.18359 -3.73047,14.33789 -3.73047,14.33594 -22.93164,11.82031 c -12.61211,6.5015 -23.37968,11.98384 -23.92968,12.18164 -0.55,0.1979 -8.76683,-5.64668 -18.25782,-12.98828 l -17.25586,-13.34961 4.75586,-1.53515 c 5.50811,-1.778 78.48836,-23.14798 82.43555,-24.13867 z m 234.61523,19.36524 c 0.4629,0.6472 29.946,140.40605 30.002,142.21875 0.038,1.2177 -0.8462,2.15639 -2.4395,2.58789 -1.375,0.3723 -3.6526,0.96204 -5.0605,1.31054 l -2.5586,0.63282 -21.7539,-67.07422 c -11.964,-36.8915 -21.6113,-67.21211 -21.4395,-67.37891 0.1718,-0.1667 2.8447,-1.42141 5.9395,-2.78711 3.0948,-1.3656 8.2047,-4.13359 11.3574,-6.15039 3.1528,-2.0168 5.8321,-3.52847 5.9531,-3.35937 z m -101.8144,8.04297 c 0.6296,0.11272 2.9772,1.02533 5.6757,2.21875 15.3762,6.8001 38.8252,9.35587 56.0645,6.10937 4.8748,-0.918 9.0185,-1.51462 9.209,-1.32422 0.4704,0.4704 43.4277,133.00152 43.4277,133.98242 0,0.4282 -0.4821,0.7793 -1.0703,0.7793 -2.2494,0 -15.9062,6.23754 -26.2578,11.99414 -5.9388,3.3026 -10.8812,5.99066 -10.9844,5.97266 -0.2507,-0.0429 -89.97386,-128.77625 -90.95312,-130.49805 -0.48133,-0.8464 2.06609,-6.4727 6.86522,-15.1582 4.1975,-7.5962 7.7349,-13.92962 7.8613,-14.07422 0.016,-0.0181 0.072,-0.0181 0.1622,-0.002 z m -227.93755,0.52148 17.61328,13.37109 c 9.68759,7.3546 17.63451,13.60543 17.65821,13.89063 0.0237,0.2852 -5.58815,3.3227 -12.46875,6.75 -6.88059,3.4273 -12.65067,6.23242 -12.82227,6.23242 -0.60867,0 -24.66601,-15.93664 -24.66601,-16.33984 0,-0.2254 0.63151,-2.20033 1.40429,-4.39063 0.77278,-2.1903 1.71824,-6.91269 2.10157,-10.49219 l 0.69726,-6.50781 5.24219,-1.25586 z m -80.63867,0.25977 c -0.016,0.0181 -0.0306,0.0342 -0.0469,0.0527 0.0222,0.0385 0.0273,0.0534 0.0508,0.0937 0.01,-0.02 0.0177,-0.0407 0.0273,-0.0606 -0.009,-0.0244 -0.0208,-0.0581 -0.0312,-0.0859 z m -2.57422,1.88281 c -0.13477,0.0291 -0.28199,0.23854 -0.42968,0.49804 0.17631,-0.14442 0.38855,-0.29406 0.58789,-0.43945 0,0 0,-0.002 0,-0.002 -0.0164,-0.0107 -0.0324,-0.0226 -0.0488,-0.0332 -0.0354,-0.0175 -0.0715,-0.0316 -0.10938,-0.0234 z m 0.41992,0.81054 c -0.0499,0.0666 -0.0897,0.11508 -0.14062,0.1836 0.44181,-0.002 0.5876,0.003 0.77539,0.008 0.045,-0.0425 0.0967,-0.0774 0.14063,-0.12109 0.17763,-0.1768 -0.49596,0.0707 -0.74415,0.10547 -0.009,-0.0695 -0.0213,-0.11448 -0.0312,-0.17579 z m -1.64453,8 c 0.0782,0.42337 0.18934,0.79478 0.32227,1.14258 0.0115,-0.18448 0.0287,-0.36809 0.0332,-0.55273 -0.12646,-0.19742 -0.24708,-0.39813 -0.35547,-0.58985 z m 168.54493,1.76563 c 0.16187,0.1541 -1.86313,8.65824 -4.5,18.89844 -2.6369,10.2401 -5.24297,18.59917 -5.79297,18.57617 -0.55,-0.0229 -6.55288,-4.3491 -13.33985,-9.61524 l -12.34179,-9.57617 17.84179,-9.28125 c 9.81197,-5.1052 17.97093,-9.15615 18.13282,-9.00195 z m -103.26563,4.21094 c -0.21677,0.18457 -0.44122,0.35732 -0.67578,0.51953 0.27965,-0.1445 0.49551,-0.31716 0.67578,-0.51953 z M 494.63867,686.8125 c 0.78595,-0.21121 6.67235,8.58168 16.35352,24.4375 8.62164,14.1206 15.82164,26.12022 16,26.66602 0.17836,0.5458 -19.45555,25.62085 -43.62891,55.72265 -24.17336,30.1017 -44.19836,54.6811 -44.5,54.6211 -1.81683,-0.3591 -10.98597,-6.5753 -11.01367,-7.4668 -0.0297,-0.9587 64.90609,-150.75504 66.72851,-153.93164 0.0147,-0.0256 0.0352,-0.042 0.0605,-0.0488 z m 267.41992,4.66797 9.12891,6.07812 c 5.02058,3.3425 9.50077,6.41187 9.95703,6.82227 0.45626,0.4104 -8.4765,5.52599 -19.85156,11.36719 -11.37506,5.8413 -20.85232,10.62109 -21.06055,10.62109 -0.74842,0 -1.34595,-4.64524 -1.63476,-12.71484 l -0.29297,-8.21485 5.00586,-1.61718 c 5.69217,-1.8389 13.0191,-6.24441 16.43359,-9.87891 z m 63.78907,0.77148 14.73437,11.14844 c 8.10375,6.132 14.73438,11.44599 14.73438,11.80859 0,0.3626 -1.09495,5.27266 -2.43164,10.91016 -1.33669,5.6375 -2.91169,10.22531 -3.5,10.19531 -1.23596,-0.0633 -47.50929,-30.19331 -47.52539,-30.94531 -0.006,-0.275 5.38847,-3.33899 11.98828,-6.80859 z m -124.66016,1.41407 4.56445,3.5039 c 2.50998,1.9268 6.47696,4.35624 8.81446,5.39844 3.4435,1.5352 4.2621,2.40736 4.3164,4.59766 0.0368,1.4867 0.60627,8.63351 1.26563,15.88281 l 1.19922,13.18164 -46.49219,23.81836 c -25.57088,13.1007 -58.05324,29.74548 -72.18164,36.98828 l -25.6875,13.16992 -5.00586,-8.16992 c -2.7529,-4.4928 -5.15251,-8.72048 -5.33399,-9.39649 -0.18149,-0.676 30.01545,-23.22196 67.10547,-50.10156 z m 289.76562,0.72265 c 1.27559,-0.0405 90.04298,128.19396 89.21488,128.88086 -14.2873,11.8523 -19.3653,16.50169 -24.5118,22.43359 -3.4193,3.94133 -6.6953,7.70413 -7.2792,8.36133 -0.7941,0.8936 -13.9146,-8.60912 -52.06059,-37.69922 -28.90202,-22.0407 -50.8595,-39.45536 -50.67579,-40.19335 0.54557,-2.1916 44.63186,-81.76121 45.3125,-81.78321 z m -264.31445,10.98047 c 1.21251,0 1.88711,4.6657 2.56641,17.75 0.59527,11.4659 -0.88917,12.2976 -1.78516,1 -0.35986,-4.5375 -0.91961,-10.6125 -1.24414,-13.5 -0.38053,-3.3858 -0.2168,-5.25 0.46289,-5.25 z m 64.09961,5.02344 28.00195,18.23828 c 15.40075,10.0311 28.03212,18.68828 28.07032,19.23828 0.0382,0.55 -10.59934,42.0625 -23.64063,92.25 l -23.71289,91.25 -5.07031,-0.13281 c -6.59024,-0.1717 -42.85784,-2.799 -43.08594,-3.1211 -0.0962,-0.136 -2.49832,-40.97109 -5.33789,-90.74609 -2.83956,-49.775 -5.41024,-92.81056 -5.71289,-95.63476 l -0.54883,-5.13477 25.51953,-13.10352 z m 71.30274,9.97656 c 0.95191,0 73.16169,54.87076 73.53906,55.88086 0.14572,0.39 -1.12469,3.27626 -2.82422,6.41406 -1.69952,3.1378 -3.42679,5.70508 -3.83789,5.70508 -1.23522,0 -72.60156,-46.9377 -72.60156,-47.75 0,-2.3322 5.06525,-20.25 5.72461,-20.25 z m -132.93555,22.41992 c 0.12597,0.008 0.35214,0.29371 0.68945,0.82227 0.63795,0.9997 0.96243,4.6251 0.76172,8.5 -0.30364,5.8621 -0.375,6.07911 -0.54492,1.63281 -0.10772,-2.8188 -0.45011,-6.6438 -0.76172,-8.5 -0.28633,-1.70569 -0.35448,-2.46784 -0.14453,-2.45508 z M 530.66602,744.375 c 0.66463,0.007 23.72384,37.57565 24.32031,39.62305 0.18089,0.6208 -22.61992,17.74498 -50.66992,38.05468 -28.05,20.3098 -51.47569,37.21205 -52.05664,37.56055 -1.63491,0.9805 -8.77486,-6.85174 -7.77344,-8.52734 1.76365,-2.9509 85.56549,-106.72094 86.17969,-106.71094 z m 191.08789,2.64648 c 0.40338,0.4662 3.97303,39.54766 7.93164,86.84766 3.95862,47.3 7.44695,87.6875 7.75195,89.75 l 0.55469,3.75 -4.83789,-0.12695 c -13.68638,-0.3591 -87.70756,-5.84644 -88.39453,-6.55274 -2.55682,-2.6287 -62.85395,-102.79331 -62.2168,-103.35351 2.6385,-2.3201 138.61636,-71.00156 139.21094,-70.31446 z m 131.5625,4.35352 35.51953,23.22656 35.51953,23.22656 -37.62695,68.01954 -37.625,68.02148 -6.89454,0.10742 c -3.79156,0.0595 -13.43712,-0.32898 -21.43554,-0.86328 l -14.54297,-0.9707 22.31055,-85.63672 c 12.27041,-47.1001 22.863,-87.77367 23.54101,-90.38477 z m -121.98438,11.54883 c 0.0603,0.005 0.12934,0.23398 0.20117,0.70898 0.22991,1.5201 0.22405,3.7701 -0.0137,5 -0.23736,1.23 -0.42597,-0.0137 -0.41797,-2.76367 0.005,-1.89062 0.0979,-2.95734 0.23047,-2.94531 z m 0.94922,15.90625 c 0.0603,0.0225 0.12791,0.11719 0.19727,0.28906 0.27741,0.6875 0.27741,1.8125 0,2.5 -0.27741,0.6875 -0.50586,0.125 -0.50586,-1.25 0,-1.03125 0.12772,-1.60644 0.30859,-1.53906 z m 210.0957,2.68359 c 0.17362,-0.1956 23.24314,17.10587 51.26367,38.44727 45.27048,34.4796 50.82078,39.00337 49.82028,40.60547 -0.6193,0.9916 -1.3662,1.80273 -1.6582,1.80273 -0.292,0 -19.8696,-12.6561 -43.50778,-28.125 -23.63821,-15.4689 -47.40289,-31.00434 -52.81054,-34.52344 l -9.83204,-6.39843 3.20508,-5.72657 c 1.76296,-3.1495 3.34591,-5.88643 3.51953,-6.08203 z m 237.93945,11.39844 c 18.0113,-0.0377 22.5969,0.28157 32.2305,2.23437 66.2366,13.4263 118.1874,64.1141 132.2734,129.0586 19.843,91.48702 -39.516,181.69722 -131.7695,200.25582 -12.0256,2.4192 -41.5985,3.4689 -53.2344,1.8887 -56.2059,-7.6329 -104.985,-42.8532 -129.4648,-93.4805 -12.9885,-26.8618 -18.276,-54.1097 -16.3985,-84.49996 4.1327,-66.8958 49.8916,-126.0695 114.0117,-147.4375 19.7245,-6.5731 28.8422,-7.97053 52.3516,-8.01953 z m -618.80078,2.46484 c 0.43967,0.005 3.15295,3.82554 6.0293,8.49024 l 5.23047,8.48242 -3.73047,1.90234 c -2.05135,1.0471 -27.4957,14.10137 -56.54297,29.00977 -47.18897,24.2196 -57.40982,29.17776 -54.13672,26.25976 2.83539,-2.5277 102.47946,-74.15453 103.15039,-74.14453 z m 369.31055,8.39649 c 2.57411,0.21096 12.52113,6.49719 52.38867,32.59179 28.54466,18.6835 52.10956,34.1799 52.36716,34.4375 0.2576,0.2575 -1.7955,4.87828 -4.5625,10.26758 -9.1614,17.8437 -14.8131,34.85573 -17.209,51.79883 -0.6222,4.4 -1.3338,9.0125 -1.582,10.25 -0.3769,1.8798 -1.0644,2.22905 -4.1816,2.12695 -9.81243,-0.3212 -149.59507,-9.90755 -149.97268,-10.28515 -0.41609,-0.4161 69.57045,-127.64287 72.0332,-130.94727 0.1325,-0.17777 0.35102,-0.27037 0.71875,-0.24023 z m -353.16406,17.17383 c 0.0559,0.006 0.0959,0.0219 0.11914,0.0469 1.01717,1.094 61.03516,99.38523 61.03516,99.95703 0,0.2302 -0.5625,0.36102 -1.25,0.29102 -3.05515,-0.3102 -72.6771,-4.99956 -118.36524,-7.97266 l -50.11328,-3.26172 -0.57031,-8.07422 c -0.31336,-4.4404 -1.67323,-11.54714 -3.02149,-15.79297 l -2.45117,-7.71874 25.13477,-12.89844 c 69.74553,-35.79299 87.74965,-44.77631 89.48242,-44.57617 z m -184.93945,15.41601 c 8.65083,-0.0499 17.92608,1.14099 24.59375,3.41211 21.41938,7.2958 38.60678,24.45965 46.16015,46.09375 2.55496,7.3178 2.79551,9.2364 2.81641,22.5 0.0209,13.3041 -0.20777,15.17174 -2.77539,22.64844 -7.96581,23.1959 -25.35516,39.90875 -49.20117,47.28711 -8.07892,2.4998 -23.2066,3.46726 -31.38086,2.00586 -7.74033,-1.3839 -18.40788,-5.28354 -24.95508,-9.1211 -7.29036,-4.2733 -21.71306,-18.696 -25.98633,-25.98633 -7.08572,-12.08848 -10.90087,-28.49646 -9.77734,-42.04296 2.59987,-31.3468 25.61585,-58.05262 56.30664,-65.33204 4.04307,-0.95893 9.00872,-1.43489 14.19922,-1.46484 z m 80.17187,81.23438 c 6.00451,-0.367 169.9417,10.45934 170.76563,11.27734 0.36016,0.3575 16.67355,26.82801 36.25195,58.82227 l 35.59766,58.17183 -2.59766,1.9707 c -5.0474,3.8325 -13.95124,12.7121 -16.64258,16.5957 -1.49931,2.1635 -3.22714,3.9261 -3.83984,3.9161 -1.07568,-0.016 -228.3221,-125.47445 -229.88672,-126.91605 -0.4248,-0.3914 0.10561,-2.70352 1.17773,-5.13867 1.07211,-2.43521 2.58056,-7.57774 3.35157,-11.42774 l 1.40039,-7 z m 177.0918,11.31836 c 0.18146,-0.1535 19.23008,0.98856 42.33008,2.5371 23.1,1.54864 42.90429,2.83724 44.00976,2.86524 1.92556,0.0481 2.17322,1.99242 5.92188,46.30078 2.15211,25.43756 3.94783,48.00206 3.99023,50.14456 l 0.0781,3.8965 -6,1.2421 c -3.3,0.6835 -8.925,2.4532 -12.5,3.9336 -3.575,1.4804 -6.95,2.8762 -7.5,3.1016 -0.91593,0.3754 -71.08415,-113.38378 -70.33008,-114.02148 z m 102.7207,6.75976 c 5.25226,-0.0645 44.2562,2.45935 44.63672,2.94141 0.10936,0.1385 -5.45693,21.96449 -12.36914,48.50195 -11.55954,44.37976 -12.73144,48.23466 -14.61328,48.06446 -1.12528,-0.1017 -4.40486,-0.3508 -7.28906,-0.5527 -4.45468,-0.3119 -5.31039,-0.6973 -5.6836,-2.5645 -0.73925,-3.6984 -5.77118,-95.83239 -5.26172,-96.34179 0.0287,-0.0287 0.22993,-0.0445 0.58008,-0.0488 z m 53.77149,3.51953 c 7.43551,0.0739 35.8497,1.82079 37.47265,2.40625 0.40817,0.1472 -11.56637,22.52882 -26.61133,49.73828 -15.04496,27.20956 -27.73045,49.54956 -28.18945,49.64456 -1.68928,0.3498 -10.38416,-4.0449 -10.01562,-5.0625 0.20955,-0.5787 5.91482,-22.4277 12.67968,-48.55276 6.76486,-26.12496 12.57024,-47.76715 12.90039,-48.09375 0.0666,-0.066 0.70146,-0.0906 1.76368,-0.0801 z m 46.80859,3.17188 h 3.51562 c 4.29001,-0.003 140.01038,8.71964 148.76367,9.56054 l 6.25,0.59961 v 10.54297 c 0,12.13496 2.0754,27.5226 5.4844,40.64849 1.3039,5.0199 2.2913,9.1962 2.1933,9.2812 -0.098,0.085 -43.37769,15.3232 -96.17769,33.8633 -52.8,18.54 -96.225,33.8216 -96.5,33.959 -0.275,0.1374 -1.93802,-2.7206 -3.69532,-6.3516 -4.16976,-8.6158 -12.96538,-19.1734 -20.34375,-24.418 -3.23791,-2.3015 -5.79298,-4.7098 -5.67578,-5.3515 0.11721,-0.6417 12.80876,-23.9291 28.20117,-51.75003 z m -96.23828,93.89061 c 6.02618,0.023 12.04238,0.57 16.40234,1.6309 21.47336,5.225 38.95547,19.5238 48.87891,39.9804 14.1648,29.1998 7.62652,62.444 -16.71289,84.9786 -7.87045,7.2868 -20.94427,14.4017 -31.30078,17.0351 -13.89966,3.5344 -29.61862,2.5217 -43.63672,-2.8125 -22.0283,-8.3822 -39.07562,-27.9598 -45.00391,-51.6816 -2.8606,-11.4466 -2.25705,-26.8356 1.50977,-38.5196 7.79995,-24.1941 28.59964,-43.3229 53.40039,-49.1093 4.40097,-1.0268 10.43671,-1.5254 16.46289,-1.502 z m -29.11133,71.0293 c -0.0589,-0.028 0.33835,0.5884 0.87891,1.3613 0.0511,-0.017 0.10261,-0.032 0.15429,-0.049 -0.34247,-0.4453 -0.41112,-0.5308 -0.79687,-1.0332 -0.14062,-0.1831 -0.21536,-0.2694 -0.23633,-0.2793 z m 1.33008,0.957 c -0.016,-0.012 0.0336,0.062 0.0488,0.092 9.4e-4,-0.012 0.003,-0.024 0.004,-0.035 -0.0141,-0.015 -0.0457,-0.052 -0.0527,-0.057 z"
       style="fill:#000000"
       id="path3915" />
    <text
       id="text3986"
       y="676.82355"
       x="696.89941"
       style="font-style:normal;font-weight:normal;font-size:35.48740005px;line-height:1.25;font-family:sans-serif;letter-spacing:0px;word-spacing:0px;fill:#000000;fill-opacity:1;stroke:none;stroke-width:0.88718504"
       xml:space="preserve"><tspan
         style="stroke-width:0.88718504"
         y="676.82355"
         x="696.89941"
         id="tspan3984"
         sodipodi:role="line">OA2</tspan></text>
    <text
       id="text3990"
       y="231.21867"
       x="167.20294"
       style="font-style:normal;font-weight:normal;font-size:40px;line-height:1.25;font-family:sans-serif;letter-spacing:0px;word-spacing:0px;fill:#000000;fill-opacity:1;stroke:none"
       xml:space="preserve"><tspan
         y="231.21867"
         x="167.20294"
         id="tspan3988"
         sodipodi:role="line">OA4</tspan></text>
    <text
       id="text3994"
       y="253.84886"
       x="654.38312"
       style="font-style:normal;font-weight:normal;font-size:40px;line-height:1.25;font-family:sans-serif;letter-spacing:0px;word-spacing:0px;fill:#000000;fill-opacity:1;stroke:none"
       xml:space="preserve"><tspan
         y="253.84886"
         x="654.38312"
         id="tspan3992"
         sodipodi:role="line">CA2</tspan></text>
    <text
       id="text3998"
       y="159.43686"
       x="972.18231"
       style="font-style:normal;font-weight:normal;font-size:40px;line-height:1.25;font-family:sans-serif;letter-spacing:0px;word-spacing:0px;fill:#000000;fill-opacity:1;stroke:none"
       xml:space="preserve"><tspan
         y="159.43686"
         x="972.18231"
         id="tspan3996"
         sodipodi:role="line">CA1</tspan></text>
    <text
       id="text4002"
       y="584.95831"
       x="1017.7018"
       style="font-style:normal;font-weight:normal;font-size:40px;line-height:1.25;font-family:sans-serif;letter-spacing:0px;word-spacing:0px;fill:#000000;fill-opacity:1;stroke:none"
       xml:space="preserve"><tspan
         y="584.95831"
         x="1017.7018"
         id="tspan4000"
         sodipodi:role="line">MA1</tspan></text>
    <text
       id="text4006"
       y="922.26666"
       x="354.22385"
       style="font-style:normal;font-weight:normal;font-size:40px;line-height:1.25;font-family:sans-serif;letter-spacing:0px;word-spacing:0px;fill:#000000;fill-opacity:1;stroke:none"
       xml:space="preserve"><tspan
         y="922.26666"
         x="354.22385"
         id="tspan4004"
         sodipodi:role="line">OA3</tspan></text>
    <text
       id="text4010"
       y="1127.0645"
       x="719.30469"
       style="font-style:normal;font-weight:normal;font-size:40px;line-height:1.25;font-family:sans-serif;letter-spacing:0px;word-spacing:0px;fill:#000000;fill-opacity:1;stroke:none"
       xml:space="preserve"><tspan
         y="1127.0645"
         x="719.30469"
         id="tspan4008"
         sodipodi:role="line">OA7</tspan></text>
    <text
       id="text4014"
       y="980.36639"
       x="1141.7867"
       style="font-style:normal;font-weight:normal;font-size:40px;line-height:1.25;font-family:sans-serif;letter-spacing:0px;word-spacing:0px;fill:#000000;fill-opacity:1;stroke:none"
       xml:space="preserve"><tspan
         y="980.36639"
         x="1141.7867"
         id="tspan4012"
         sodipodi:role="line">OA1</tspan></text>
  </g>
</svg>
