<?xml version="1.0" encoding="UTF-8" standalone="no"?>
<!-- Created with Inkscape (http://www.inkscape.org/) -->

<svg
   xmlns:dc="http://purl.org/dc/elements/1.1/"
   xmlns:cc="http://creativecommons.org/ns#"
   xmlns:rdf="http://www.w3.org/1999/02/22-rdf-syntax-ns#"
   xmlns:svg="http://www.w3.org/2000/svg"
   xmlns="http://www.w3.org/2000/svg"
   xmlns:sodipodi="http://sodipodi.sourceforge.net/DTD/sodipodi-0.dtd"
   xmlns:inkscape="http://www.inkscape.org/namespaces/inkscape"
   width="199.93768mm"
   height="199.96622mm"
   viewBox="0 0 199.93768 199.96622"
   version="1.1"
   id="svg7572"
   inkscape:version="0.92.2 5c3e80d, 2017-08-06"
   sodipodi:docname="drawing.svg">
  <defs
     id="defs7566" />
  <sodipodi:namedview
     id="base"
     pagecolor="#ffffff"
     bordercolor="#666666"
     borderopacity="1.0"
     inkscape:pageopacity="0.0"
     inkscape:pageshadow="2"
     inkscape:zoom="0.7"
     inkscape:cx="625.1708"
     inkscape:cy="340.1386"
     inkscape:document-units="mm"
     inkscape:current-layer="layer1"
     showgrid="false"
     inkscape:window-width="1680"
     inkscape:window-height="995"
     inkscape:window-x="0"
     inkscape:window-y="27"
     inkscape:window-maximized="1"
     inkscape:showpageshadow="true"
     units="mm"
     width="1200mm"
     fit-margin-top="0"
     fit-margin-left="0"
     fit-margin-right="0"
     fit-margin-bottom="0" />
  <metadata
     id="metadata7569">
    <rdf:RDF>
      <cc:Work
         rdf:about="">
        <dc:format>image/svg+xml</dc:format>
        <dc:type
           rdf:resource="http://purl.org/dc/dcmitype/StillImage" />
        <dc:title></dc:title>
      </cc:Work>
    </rdf:RDF>
  </metadata>
  <g
     inkscape:label="Layer 1"
     inkscape:groupmode="layer"
     id="layer1"
     transform="translate(-10.641498,-95.056752)">
    <g
       id="g8533"
       transform="matrix(0.37783493,0,0,0.37783493,-443.84531,-11.876155)"
       inkscape:export-xdpi="180.25"
       inkscape:export-ydpi="180.25">
      <path
         style="fill:#fdfdfd;stroke-width:0.26458335"
         d="M 1202.8714,547.59822 V 283.01488 h 264.5834 264.5833 v 264.58334 264.58335 h -264.5833 -264.5834 z"
         id="path8213"
         inkscape:connector-curvature="0" />
      <path
         style="fill:#e2e2e2;stroke-width:0.26458335"
         d="m 1239.4482,796.52961 c -0.1809,-0.18089 -0.3288,-0.48366 -0.3288,-0.67283 0,-0.2766 -2.114,-0.34396 -10.7951,-0.34396 -8.0433,0 -10.8759,-0.0809 -11.1124,-0.3175 -0.2342,-0.23413 -0.3175,-2.61406 -0.3175,-9.0645 0,-8.46042 -0.017,-8.75778 -0.5292,-9.07743 -0.7113,-0.44418 -0.7113,-1.7953 0,-2.23948 0.5257,-0.32832 0.5292,-0.61701 0.5292,-44.78547 0,-44.16846 0,-44.45715 -0.5292,-44.78547 -0.7113,-0.44418 -0.7113,-1.7953 0,-2.23948 0.5258,-0.32835 0.5292,-0.61701 0.5292,-44.91776 0,-44.30075 0,-44.58941 -0.5292,-44.91776 -0.6859,-0.42836 -0.6859,-1.54654 0,-1.9749 0.5258,-0.32835 0.5292,-0.61701 0.5292,-44.91776 0,-44.30075 0,-44.58942 -0.5292,-44.91777 -0.6859,-0.42834 -0.6859,-1.54655 0,-1.97489 0.5258,-0.32835 0.5292,-0.61701 0.5292,-44.91776 0,-44.30075 0,-44.58942 -0.5292,-44.91777 -0.6859,-0.42834 -0.6859,-1.54655 0,-1.97489 0.5258,-0.32835 0.5292,-0.61701 0.5292,-44.91777 0,-44.30075 0,-44.58941 -0.5292,-44.91776 -0.6859,-0.42834 -0.6859,-1.54655 0,-1.97489 0.5119,-0.31968 0.5292,-0.61701 0.5292,-9.11147 0,-7.62995 0.055,-8.8355 0.4157,-9.19677 0.3762,-0.37612 7.969,-0.41577 79.6207,-0.41577 71.6517,0 79.2446,0.0396 79.6207,0.41577 0.3774,0.37739 0.4158,23.35985 0.4158,248.92001 0,192.92829 -0.071,248.57525 -0.3175,248.82174 -0.2027,0.20267 -1.2324,0.3175 -2.8468,0.3175 -2.2427,0 -2.5667,0.0599 -2.8598,0.52916 -0.2104,0.33706 -0.617,0.52917 -1.1197,0.52917 -0.5027,0 -0.9092,-0.19211 -1.1197,-0.52917 -0.3241,-0.51892 -0.617,-0.52916 -15.1531,-0.52916 h -14.8225 l -0.2612,0.59531 c -0.1874,0.42704 -0.4856,0.59531 -1.0549,0.59531 -0.5694,0 -0.8676,-0.16827 -1.055,-0.59531 l -0.2611,-0.59531 h -14.8554 c -14.6203,0 -14.8575,0.008 -14.9934,0.52784 -0.2673,1.02211 -2.1131,1.02264 -2.4374,0 -0.1651,-0.51938 -0.4059,-0.52784 -15.0362,-0.52784 h -14.8683 l -0.2612,0.59531 c -0.1874,0.42704 -0.4856,0.59531 -1.055,0.59531 -0.5693,0 -0.8675,-0.16827 -1.0549,-0.59531 l -0.2612,-0.59531 h -14.8234 -14.8235 l -0.2612,0.59531 c -0.2974,0.67797 -1.4145,0.92363 -1.9167,0.42148 z M 1374.3214,555.53572 V 317.93988 h -42.201 -42.2011 l -0.01,2.18281 c 0,1.20055 -3.6178,104.36331 -8.0283,229.2506 -6.158,174.37177 -8.0976,227.16239 -8.3574,227.47553 -0.3005,0.36197 -3.1211,0.40775 -25.124,0.40775 -18.9248,0 -24.8606,-0.0751 -25.103,-0.3175 -0.4093,-0.40929 -0.4093,-1.60155 0,-2.01084 0.2422,-0.24225 5.9739,-0.3175 24.1839,-0.3175 h 23.8664 l 0.1628,-2.71198 c 0.09,-1.49158 3.6699,-102.60542 7.9565,-224.6974 4.2865,-122.09199 7.8714,-223.62254 7.9664,-225.62345 l 0.1727,-3.63802 h -34.0329 -34.0329 v 237.59584 237.59585 h 77.3906 77.3906 z m 0,-247.91459 v -7.9375 h -77.3906 -77.3906 v 7.9375 7.9375 h 77.3906 77.3906 z m 38.1643,488.90848 c -0.1809,-0.18089 -0.3289,-0.48366 -0.3289,-0.67283 0,-0.2766 -2.1139,-0.34396 -10.795,-0.34396 -8.0433,0 -10.8759,-0.0809 -11.1125,-0.3175 -0.2281,-0.22818 -0.3175,-1.99668 -0.3175,-6.28637 0,-5.6823 -0.025,-5.98472 -0.5291,-6.29931 -0.2984,-0.18634 -0.5292,-0.61703 -0.5292,-0.98745 0,-0.37042 0.2308,-0.8011 0.5292,-0.98745 0.5264,-0.32877 0.5291,-0.61701 0.5291,-56.29484 0,-55.67784 0,-55.96607 -0.5291,-56.29485 -0.3371,-0.2105 -0.5292,-0.61703 -0.5292,-1.11974 0,-0.50271 0.1921,-0.90924 0.5292,-1.11974 0.5264,-0.32877 0.5291,-0.61701 0.5291,-56.29484 0,-55.67784 0,-55.96608 -0.5291,-56.29485 -0.3371,-0.2105 -0.5292,-0.61703 -0.5292,-1.11974 0,-0.50271 0.1921,-0.90924 0.5292,-1.11974 0.5264,-0.32877 0.5291,-0.61701 0.5291,-56.29485 0,-55.67783 0,-55.96607 -0.5291,-56.29485 -0.7113,-0.44418 -0.7113,-1.79528 0,-2.23947 0.5264,-0.32878 0.5291,-0.61701 0.5291,-56.29485 0,-55.67783 0,-55.96607 -0.5291,-56.29485 -0.7113,-0.44418 -0.7113,-1.79528 0,-2.23947 0.516,-0.32228 0.5291,-0.61701 0.5291,-11.88959 0,-10.15552 0.051,-11.60961 0.4158,-11.9749 0.3761,-0.37612 7.969,-0.41577 79.6207,-0.41577 71.6517,0 79.2446,0.0396 79.6207,0.41577 0.3774,0.37739 0.4158,23.35985 0.4158,248.92001 0,192.92829 -0.071,248.57525 -0.3175,248.82174 -0.2027,0.20267 -1.2324,0.3175 -2.8468,0.3175 -2.2427,0 -2.5667,0.0599 -2.8597,0.52916 -0.2105,0.33706 -0.6171,0.52917 -1.1198,0.52917 -0.5027,0 -0.9092,-0.19211 -1.1197,-0.52917 -0.3241,-0.51892 -0.617,-0.52916 -15.1531,-0.52916 h -14.8225 l -0.2612,0.59531 c -0.1874,0.42704 -0.4856,0.59531 -1.0549,0.59531 -0.5694,0 -0.8676,-0.16827 -1.055,-0.59531 l -0.2612,-0.59531 h -14.8553 c -14.6203,0 -14.8576,0.008 -14.9934,0.52784 -0.2673,1.02211 -2.1131,1.02264 -2.4374,0 -0.1651,-0.52009 -0.4059,-0.52856 -15.0362,-0.52856 h -14.8684 l -0.2611,0.59532 c -0.1874,0.42703 -0.4856,0.59531 -1.055,0.59531 -0.5693,0 -0.8675,-0.16828 -1.0549,-0.59531 l -0.2612,-0.59532 h -14.8234 -14.8235 l -0.2612,0.59532 c -0.2974,0.67796 -1.4145,0.92363 -1.9167,0.42148 z M 1547.3589,555.53572 V 317.93988 h -42.4484 -42.4484 l -7.9132,2.80102 -7.9131,2.80102 -7.9839,11.33581 -7.9839,11.3358 -8.0628,62.79078 -8.0627,62.79078 -8.0838,152.13543 c -4.4461,83.67448 -8.1798,152.31402 -8.2971,152.5323 -0.2754,0.51244 -1.7079,0.65862 -2.0768,0.21195 -0.2045,-0.24759 2.0093,-43.31885 7.8847,-153.40571 l 8.169,-153.06147 8.0459,-62.59578 c 4.4253,-34.42768 8.1882,-62.86146 8.3619,-63.18618 0.3916,-0.73171 15.548,-22.24673 16.0251,-22.74812 0.1901,-0.19987 2.4699,-1.1165 5.0661,-2.03694 l 4.7204,-1.67354 -30.8901,-0.0136 -30.8901,-0.0136 v 237.59584 237.59585 h 77.3906 77.3906 z m 0,-247.91459 v -7.9375 h -77.3906 -77.3906 v 7.9375 7.9375 h 77.3906 77.3906 z m 38.1643,488.90848 c -0.1809,-0.18089 -0.3288,-0.48366 -0.3288,-0.67283 0,-0.2766 -2.114,-0.34396 -10.795,-0.34396 -8.0434,0 -10.876,-0.0809 -11.1125,-0.3175 -0.238,-0.23794 -0.3175,-3.4372 -0.3175,-12.76866 0,-12.16459 -0.012,-12.45876 -0.5292,-12.7816 -0.2984,-0.18635 -0.5292,-0.61704 -0.5292,-0.98745 0,-0.37042 0.2308,-0.80111 0.5292,-0.98745 0.5262,-0.32859 0.5292,-0.61701 0.5292,-51.13547 0,-50.51846 0,-50.80688 -0.5292,-51.13547 -0.3371,-0.2105 -0.5292,-0.61703 -0.5292,-1.11974 0,-0.50271 0.1921,-0.90924 0.5292,-1.11975 0.5262,-0.32858 0.5292,-0.617 0.5292,-51.13546 0,-50.51846 0,-50.80688 -0.5292,-51.13547 -0.2984,-0.18635 -0.5292,-0.61703 -0.5292,-0.98745 0,-0.37042 0.2308,-0.80111 0.5292,-0.98745 0.5262,-0.32859 0.5292,-0.61701 0.5292,-51.13547 0,-50.51846 0,-50.80687 -0.5292,-51.13548 -0.7113,-0.44418 -0.7113,-1.79528 0,-2.23947 0.5262,-0.3286 0.5292,-0.61701 0.5292,-51.13547 0,-50.51846 0,-50.80687 -0.5292,-51.13548 -0.6859,-0.42834 -0.6859,-1.54655 0,-1.97488 0.5233,-0.32683 0.5292,-0.61702 0.5292,-26.30939 0,-23.26442 0.043,-26.02236 0.4157,-26.39469 0.3762,-0.37613 7.969,-0.41577 79.6207,-0.41577 71.6517,0 79.2446,0.0396 79.6207,0.41577 0.3774,0.37739 0.4158,23.35985 0.4158,248.92001 0,192.92829 -0.071,248.57525 -0.3175,248.82174 -0.2027,0.20267 -1.2324,0.3175 -2.8468,0.3175 -2.2427,0 -2.5667,0.0599 -2.8597,0.52916 -0.2105,0.33706 -0.6171,0.52917 -1.1198,0.52917 -0.5027,0 -0.9092,-0.19211 -1.1197,-0.52917 -0.3241,-0.51892 -0.617,-0.52916 -15.153,-0.52916 h -14.8226 l -0.2612,0.59531 c -0.1874,0.42704 -0.4856,0.59531 -1.0549,0.59531 -0.5694,0 -0.8676,-0.16827 -1.055,-0.59531 l -0.2612,-0.59531 h -14.8553 c -14.6203,0 -14.8575,0.008 -14.9934,0.52784 -0.2673,1.02211 -2.1131,1.02264 -2.4374,0 -0.1651,-0.52009 -0.4059,-0.52856 -15.0362,-0.52856 h -14.8683 l -0.2612,0.59532 c -0.1874,0.42703 -0.4856,0.59531 -1.055,0.59531 -0.5693,0 -0.8675,-0.16828 -1.0549,-0.59531 l -0.2612,-0.59532 h -14.8234 -14.8235 l -0.2612,0.59532 c -0.2974,0.67796 -1.4145,0.92363 -1.9167,0.42148 z M 1720.3964,555.53572 V 317.93988 h -42.3047 -42.3046 l -4.0545,4.43177 c -2.23,2.43747 -5.8117,6.34944 -7.9594,8.69326 l -3.9049,4.26148 -8.0727,48.4311 -8.0728,48.43111 -8.0743,69.14804 -8.0742,69.14804 -8.0779,102.79063 c -4.4429,56.53485 -8.1753,102.96923 -8.2943,103.18751 -0.2829,0.51911 -1.7127,0.65603 -2.0909,0.20026 -0.22,-0.26506 1.7926,-26.83182 7.8834,-104.06092 l 8.1787,-103.70498 8.0831,-69.1833 8.083,-69.1833 8.0734,-48.28166 c 5.005,-29.93143 8.2233,-48.5104 8.4677,-48.88349 0.3436,-0.52437 10.4487,-11.70592 13.0439,-14.43336 l 0.944,-0.99219 h -33.1266 -33.1266 v 237.59584 237.59585 h 77.3906 77.3906 z m 0,-247.91459 v -7.9375 h -77.3906 -77.3906 v 7.9375 7.9375 h 77.3906 77.3906 z"
         id="path8211"
         inkscape:connector-curvature="0" />
      <path
         style="fill:#d3d3d3;stroke-width:0.26458335"
         d="m 1239.385,795.91263 -0.2503,-0.65852 -10.9218,-0.0691 -10.9217,-0.0691 -0.07,-8.92225 c -0.067,-8.59444 -0.089,-8.9326 -0.5953,-9.20359 -0.7138,-0.38203 -0.7116,-1.73209 0,-2.11478 0.526,-0.28149 0.5292,-0.55399 0.5292,-44.84688 0,-44.29289 0,-44.56539 -0.5292,-44.84688 -0.3443,-0.18425 -0.5292,-0.55398 -0.5292,-1.05833 0,-0.50435 0.1849,-0.87408 0.5292,-1.05833 0.526,-0.28149 0.5292,-0.55399 0.5292,-44.97917 0,-44.42519 0,-44.69768 -0.5292,-44.97917 -0.692,-0.37034 -0.692,-1.48175 0,-1.85209 0.526,-0.28149 0.5292,-0.55398 0.5292,-44.97916 0,-44.42518 0,-44.69769 -0.5292,-44.97917 -0.692,-0.37035 -0.692,-1.48174 0,-1.85209 0.526,-0.28148 0.5292,-0.55399 0.5292,-44.97916 0,-44.42518 0,-44.69769 -0.5292,-44.97917 -0.692,-0.37035 -0.692,-1.48174 0,-1.85209 0.526,-0.28148 0.5292,-0.55399 0.5292,-44.97917 0,-44.42517 0,-44.69768 -0.5292,-44.97916 -0.6901,-0.36933 -0.6922,-1.48164 0,-1.85023 0.5067,-0.27116 0.5282,-0.60915 0.5953,-9.33587 l 0.07,-9.05453 h 79.6396 79.6396 v 248.84067 248.84063 l -2.7076,0.0754 c -2.3769,0.0661 -2.7416,0.13885 -2.9859,0.59531 -0.3791,0.70839 -1.7308,0.70252 -2.1117,-0.009 -0.2781,-0.51959 -0.554,-0.52917 -15.2294,-0.52917 h -14.9462 l -0.2515,0.66146 c -0.1775,0.46683 -0.45,0.66146 -0.926,0.66146 -0.4761,0 -0.7486,-0.19463 -0.9261,-0.66146 l -0.2515,-0.66146 h -14.962 -14.9621 l -0.2515,0.66146 c -0.1923,0.50596 -0.4411,0.66146 -1.0583,0.66146 -0.6172,0 -0.866,-0.1555 -1.0583,-0.66146 l -0.2515,-0.66146 h -14.9621 -14.962 l -0.2515,0.66146 c -0.1775,0.46683 -0.45,0.66146 -0.9261,0.66146 -0.476,0 -0.7485,-0.19463 -0.926,-0.66146 l -0.2515,-0.66146 h -14.962 -14.9621 l -0.2515,0.66146 c -0.3483,0.91604 -1.5031,0.91787 -1.851,0.003 z M 1374.4537,555.53572 V 317.80759 l -42.2752,-0.067 c -33.6937,-0.0534 -42.2946,2.6e-4 -42.3713,0.26458 -0.053,0.18235 -3.6829,102.84436 -8.0667,228.1378 -4.3839,125.29345 -8.0577,228.46111 -8.1641,229.26147 l -0.1935,1.45521 h -25.0031 -25.0032 v -0.92604 -0.92604 l 24.0771,-0.13229 24.0771,-0.1323 0.2092,-3.0427 c 0.4251,-6.1816 16.0492,-453.61522 15.847,-453.81739 -0.1153,-0.11531 -15.5028,-0.17943 -34.1944,-0.1425 l -33.9847,0.0671 -0.068,237.46356 c -0.037,130.60495 -0.011,237.61259 0.058,237.79473 0.1002,0.26435 15.7572,0.31774 77.5905,0.26458 l 77.4649,-0.0666 z m 0,-247.91459 v -8.06979 h -77.5229 -77.5229 l -0.07,7.80215 c -0.039,4.29119 -0.013,7.95256 0.058,8.13639 0.103,0.2684 15.384,0.32111 77.5932,0.26763 l 77.4648,-0.0666 z m 37.9688,488.2915 -0.2503,-0.65852 -10.9217,-0.0691 -10.9218,-0.0691 -0.071,-6.14484 c -0.067,-5.81649 -0.099,-6.15987 -0.5953,-6.42546 -0.6874,-0.36788 -0.6845,-1.48058 0,-1.84949 0.5266,-0.28183 0.5291,-0.55398 0.5291,-56.35625 0,-55.80227 0,-56.07442 -0.5291,-56.35626 -0.3443,-0.18425 -0.5292,-0.55398 -0.5292,-1.05833 0,-0.50435 0.1849,-0.87408 0.5292,-1.05833 0.5266,-0.28184 0.5291,-0.55399 0.5291,-56.35625 0,-55.80227 0,-56.07442 -0.5291,-56.35626 -0.7172,-0.3838 -0.7172,-1.73286 0,-2.11666 0.5266,-0.28184 0.5291,-0.55399 0.5291,-56.35626 0,-55.80226 0,-56.07441 -0.5291,-56.35625 -0.7172,-0.3838 -0.7172,-1.73286 0,-2.11667 0.5266,-0.28183 0.5291,-0.55399 0.5291,-56.35625 0,-55.80226 0,-56.07442 -0.5291,-56.35625 -0.7156,-0.38295 -0.7173,-1.73279 0,-2.11521 0.5119,-0.27395 0.5284,-0.60928 0.5954,-12.114 l 0.069,-11.83225 h 79.6396 79.6396 v 248.84067 248.84063 l -2.7076,0.0754 c -2.3769,0.0661 -2.7416,0.13885 -2.9859,0.59531 -0.3791,0.70839 -1.7308,0.70252 -2.1117,-0.009 -0.2781,-0.51959 -0.554,-0.52917 -15.2294,-0.52917 h -14.9462 l -0.2515,0.66146 c -0.1775,0.46683 -0.45,0.66146 -0.926,0.66146 -0.4761,0 -0.7486,-0.19463 -0.9261,-0.66146 l -0.2515,-0.66146 h -14.962 -14.9621 l -0.2515,0.66146 c -0.1923,0.50596 -0.4411,0.66146 -1.0583,0.66146 -0.6172,0 -0.866,-0.1555 -1.0583,-0.66146 l -0.2515,-0.66146 h -14.9621 -14.962 l -0.2515,0.66146 c -0.1775,0.46683 -0.45,0.66146 -0.9261,0.66146 -0.476,0 -0.7485,-0.19463 -0.926,-0.66146 l -0.2515,-0.66146 h -14.962 -14.9621 l -0.2515,0.66146 c -0.3483,0.91604 -1.5031,0.91787 -1.851,0.003 z M 1547.4912,555.53572 V 317.80759 l -42.3777,-0.067 -42.3777,-0.0669 -8.0879,2.86041 -8.088,2.86041 -8.0653,11.44047 -8.0653,11.44047 -8.0876,63.02441 -8.0876,63.0244 -8.0551,151.34167 c -4.4304,83.23793 -8.0872,151.69887 -8.1263,152.13543 -0.059,0.65691 -0.2021,0.80872 -0.8309,0.88058 -0.4179,0.0478 -0.8571,-0.0116 -0.976,-0.13229 -0.119,-0.12052 3.4633,-69.15632 7.9604,-153.41288 l 8.1767,-153.19376 7.9349,-61.9125 c 4.3642,-34.05188 8.0375,-62.32922 8.1628,-62.83854 0.1833,-0.74454 14.5605,-21.55216 16.1149,-23.32254 0.2106,-0.23984 2.5186,-1.1773 5.1288,-2.08323 2.6102,-0.90594 4.7459,-1.75199 4.7459,-1.88012 0,-0.13329 -13.2733,-0.2042 -31.0224,-0.16573 l -31.0224,0.0672 -0.068,237.46355 c -0.037,130.60495 -0.011,237.61259 0.058,237.79473 0.1003,0.26435 15.7572,0.31774 77.5905,0.26458 l 77.4649,-0.0666 z m 0,-247.91459 v -8.06979 h -77.5229 -77.5229 l -0.07,7.80215 c -0.039,4.29119 -0.013,7.95256 0.058,8.13639 0.103,0.2684 15.3839,0.32111 77.5931,0.26763 l 77.4649,-0.0666 z m 37.9688,488.2915 -0.2503,-0.65852 -10.9217,-0.0691 -10.9218,-0.0691 -0.069,-12.62591 c -0.067,-12.29845 -0.082,-12.63322 -0.5953,-12.90776 -0.6896,-0.36904 -0.688,-1.48111 0,-1.8507 0.5264,-0.28171 0.5292,-0.55399 0.5292,-51.19688 0,-50.64289 0,-50.91518 -0.5292,-51.19688 -0.3443,-0.18425 -0.5291,-0.55398 -0.5291,-1.05833 0,-0.50435 0.1848,-0.87408 0.5291,-1.05834 0.5264,-0.2817 0.5292,-0.55398 0.5292,-51.19687 0,-50.6429 0,-50.91518 -0.5292,-51.19688 -0.3062,-0.16391 -0.5291,-0.55398 -0.5291,-0.92604 0,-0.37206 0.2229,-0.76213 0.5291,-0.92604 0.5264,-0.28171 0.5292,-0.55399 0.5292,-51.19688 0,-50.64289 0,-50.91518 -0.5292,-51.19688 -0.3443,-0.18426 -0.5291,-0.55399 -0.5291,-1.05833 0,-0.50434 0.1848,-0.87407 0.5291,-1.05833 0.5264,-0.2817 0.5292,-0.55399 0.5292,-51.19688 0,-50.64289 0,-50.91519 -0.5292,-51.19688 -0.6913,-0.36997 -0.692,-1.4817 0,-1.8514 0.5213,-0.27899 0.5288,-0.60957 0.5954,-26.53379 l 0.066,-26.25127 h 79.6396 79.6396 v 248.84067 248.84063 l -2.7076,0.0754 c -2.3769,0.0661 -2.7416,0.13885 -2.9859,0.59531 -0.3791,0.70839 -1.7308,0.70252 -2.1117,-0.009 -0.2781,-0.51959 -0.554,-0.52917 -15.2294,-0.52917 h -14.9462 l -0.2515,0.66146 c -0.1775,0.46683 -0.45,0.66146 -0.926,0.66146 -0.4761,0 -0.7486,-0.19463 -0.9261,-0.66146 l -0.2515,-0.66146 h -14.962 -14.9621 l -0.2515,0.66146 c -0.1923,0.50596 -0.4411,0.66146 -1.0583,0.66146 -0.6172,0 -0.8659,-0.1555 -1.0583,-0.66146 l -0.2515,-0.66146 h -14.9621 -14.962 l -0.2515,0.66146 c -0.1775,0.46683 -0.45,0.66146 -0.9261,0.66146 -0.476,0 -0.7485,-0.19463 -0.926,-0.66146 l -0.2515,-0.66146 h -14.962 -14.9621 l -0.2515,0.66146 c -0.3483,0.91604 -1.5031,0.91787 -1.851,0.003 z M 1720.5287,555.53572 V 317.80759 l -42.3748,-0.067 -42.3749,-0.0669 -8.0649,8.82099 -8.0649,8.82099 -8.0958,48.57122 -8.0958,48.57123 -8.0868,69.27787 -8.0868,69.27786 -8.0518,102.26146 c -4.4285,56.24381 -8.0835,102.49959 -8.1224,102.79063 -0.076,0.56629 -1.3865,0.9067 -1.8204,0.47276 -0.1304,-0.13036 3.3188,-45.22867 7.9593,-104.06809 l 8.1893,-103.83801 8.083,-69.1833 8.083,-69.1833 8.0684,-48.25177 c 7.146,-42.73584 8.1363,-48.33598 8.6623,-48.98848 0.3267,-0.4052 3.5408,-3.95492 7.1425,-7.88827 3.6016,-3.93334 6.5484,-7.22189 6.5484,-7.30788 0,-0.086 -14.9721,-0.12612 -33.2714,-0.0892 l -33.2713,0.0672 -0.068,237.46355 c -0.037,130.60495 -0.011,237.61259 0.058,237.79473 0.1003,0.26435 15.7572,0.31774 77.5905,0.26458 l 77.4649,-0.0666 z m 0,-247.91459 v -8.06979 h -77.5229 -77.5229 l -0.07,7.80215 c -0.039,4.29119 -0.012,7.95256 0.058,8.13639 0.103,0.2684 15.3839,0.32111 77.5931,0.26763 l 77.4649,-0.0666 z"
         id="path8209"
         inkscape:connector-curvature="0" />
      <path
         style="fill:#a5a5a5;stroke-width:0.26458335"
         d="m 1239.7092,796.26138 c -0.1789,-0.17889 -0.3253,-0.48001 -0.3253,-0.66919 0,-0.27659 -2.1139,-0.34396 -10.795,-0.34396 -8.0433,0 -10.8759,-0.0809 -11.1125,-0.3175 -0.2341,-0.23413 -0.3175,-2.61405 -0.3175,-9.06449 0,-8.46042 -0.017,-8.75779 -0.5291,-9.07743 -0.6792,-0.42418 -0.6792,-1.28614 0,-1.71032 0.5257,-0.32835 0.5291,-0.61701 0.5291,-45.05005 0,-44.43304 0,-44.7217 -0.5291,-45.05005 -0.6792,-0.42418 -0.6792,-1.28614 0,-1.71032 0.5258,-0.32835 0.5291,-0.61701 0.5291,-45.18234 0,-44.56534 0,-44.854 -0.5291,-45.18235 -0.2911,-0.18176 -0.5292,-0.50704 -0.5292,-0.72286 0,-0.21582 0.2381,-0.5411 0.5292,-0.72287 0.5258,-0.32835 0.5291,-0.61701 0.5291,-45.18234 0,-44.56534 0,-44.854 -0.5291,-45.18235 -0.6759,-0.42211 -0.6759,-1.02361 0,-1.44572 0.5258,-0.32836 0.5291,-0.61702 0.5291,-45.18235 0,-44.56534 0,-44.854 -0.5291,-45.18235 -0.6759,-0.42212 -0.6759,-1.02361 0,-1.44573 0.5258,-0.32835 0.5291,-0.61701 0.5291,-45.18235 0,-44.56533 0,-44.85399 -0.5291,-45.18235 -0.6759,-0.42211 -0.6759,-1.02361 0,-1.44572 0.5119,-0.31968 0.5291,-0.61701 0.5291,-9.11147 0,-7.62994 0.055,-8.83549 0.4158,-9.19677 0.3761,-0.37612 7.945,-0.41577 79.3561,-0.41577 71.4112,0 78.98,0.0396 79.3561,0.41577 0.3774,0.37739 0.4158,23.3358 0.4158,248.65543 0,192.7225 -0.071,248.31067 -0.3175,248.55715 -0.2027,0.20267 -1.2324,0.3175 -2.8468,0.3175 -2.2427,0 -2.5667,0.06 -2.8597,0.52917 -0.1818,0.29104 -0.5666,0.52917 -0.8552,0.52917 -0.2886,0 -0.6734,-0.23813 -0.8551,-0.52917 -0.3242,-0.51911 -0.6171,-0.52917 -15.4177,-0.52917 h -15.0871 l -0.2612,0.59532 c -0.1456,0.33186 -0.4953,0.59531 -0.7903,0.59531 -0.295,0 -0.6448,-0.26345 -0.7904,-0.59531 l -0.2612,-0.59532 h -15.1508 c -12.6924,0 -15.1508,0.0591 -15.1508,0.36449 0,1.03971 -1.6664,1.16637 -1.9886,0.15113 -0.1597,-0.50318 -0.5285,-0.51562 -15.2967,-0.51562 h -15.1329 l -0.2612,0.59532 c -0.1456,0.33186 -0.4954,0.59531 -0.7904,0.59531 -0.2949,0 -0.6447,-0.26345 -0.7903,-0.59531 l -0.2612,-0.59532 h -15.088 -15.0881 l -0.2612,0.59378 c -0.3051,0.69363 -0.9288,0.88167 -1.3911,0.41937 z M 1374.586,555.53572 V 317.6753 h -42.4656 -42.4656 l -0.01,2.3151 c -0.01,1.27331 -3.6157,104.43338 -8.0234,229.24459 -6.2341,176.52903 -8.0906,227.02169 -8.3586,227.34461 -0.3091,0.37254 -2.8682,0.40818 -24.9545,0.34759 -23.108,-0.0634 -24.6279,-0.0958 -24.9021,-0.53052 -0.213,-0.33771 -0.213,-0.58833 0,-0.92604 0.2741,-0.43458 1.763,-0.46718 24.2481,-0.53057 l 23.9561,-0.0675 0.1659,-2.97519 c 0.1229,-2.20332 16.0324,-452.90599 16.0268,-454.02362 -6e-4,-0.10914 -15.4196,-0.19843 -34.2646,-0.19843 h -34.2639 v 237.8604 237.86043 h 77.6552 77.6552 z m 0,-247.91459 v -8.20208 h -77.6552 -77.6552 v 8.20208 8.20208 h 77.6552 77.6552 z m 38.1607,488.64025 c -0.1789,-0.17889 -0.3253,-0.48001 -0.3253,-0.66919 0,-0.27659 -2.1139,-0.34396 -10.795,-0.34396 -8.0433,0 -10.8759,-0.0809 -11.1125,-0.3175 -0.2282,-0.22817 -0.3175,-1.99667 -0.3175,-6.28636 0,-5.6823 -0.025,-5.98472 -0.5291,-6.29931 -0.2911,-0.18177 -0.5292,-0.50705 -0.5292,-0.72287 0,-0.21582 0.2381,-0.5411 0.5292,-0.72287 0.5264,-0.32877 0.5291,-0.617 0.5291,-56.55942 0,-55.94242 0,-56.23066 -0.5291,-56.55943 -0.2911,-0.18177 -0.5292,-0.56658 -0.5292,-0.85516 0,-0.28858 0.2381,-0.67339 0.5292,-0.85516 0.5264,-0.32877 0.5291,-0.61701 0.5291,-56.55942 0,-55.94242 0,-56.23066 -0.5291,-56.55943 -0.2911,-0.18177 -0.5292,-0.56658 -0.5292,-0.85516 0,-0.28858 0.2381,-0.67339 0.5292,-0.85516 0.5264,-0.32877 0.5291,-0.61701 0.5291,-56.55943 0,-55.94241 0,-56.23064 -0.5291,-56.55943 -0.6793,-0.42418 -0.6793,-1.28613 0,-1.7103 0.5264,-0.32879 0.5291,-0.61702 0.5291,-56.55944 0,-55.94241 0,-56.23064 -0.5291,-56.55943 -0.6793,-0.42418 -0.6793,-1.28613 0,-1.7103 0.516,-0.32228 0.5291,-0.61702 0.5291,-11.8896 0,-10.15552 0.05,-11.60961 0.4158,-11.9749 0.3761,-0.37612 7.9449,-0.41577 79.3561,-0.41577 71.4112,0 78.98,0.0396 79.3561,0.41577 0.3774,0.37739 0.4158,23.3358 0.4158,248.65543 0,192.7225 -0.071,248.31067 -0.3175,248.55715 -0.2027,0.20267 -1.2324,0.3175 -2.8468,0.3175 -2.2427,0 -2.5667,0.06 -2.8597,0.52917 -0.1818,0.29104 -0.5666,0.52917 -0.8552,0.52917 -0.2886,0 -0.6734,-0.23813 -0.8551,-0.52917 -0.3242,-0.51911 -0.617,-0.52917 -15.4177,-0.52917 h -15.0871 l -0.2612,0.59532 c -0.1456,0.33186 -0.4954,0.59531 -0.7903,0.59531 -0.295,0 -0.6448,-0.26345 -0.7904,-0.59531 l -0.2612,-0.59532 h -15.1508 c -12.6924,0 -15.1508,0.0591 -15.1508,0.36449 0,1.03971 -1.6664,1.16637 -1.9886,0.15113 -0.1598,-0.50318 -0.5285,-0.51562 -15.2967,-0.51562 h -15.1329 l -0.2612,0.59532 c -0.1456,0.33186 -0.4954,0.59531 -0.7904,0.59531 -0.295,0 -0.6447,-0.26345 -0.7903,-0.59531 l -0.2612,-0.59532 h -15.088 -15.0881 l -0.2612,0.59378 c -0.3051,0.69363 -0.9288,0.88167 -1.3911,0.41937 z M 1547.6235,555.53572 V 317.6753 l -42.5318,-0.006 -42.5317,-0.006 -8.0784,2.84362 -8.0784,2.84362 -7.9871,11.33129 -7.9871,11.33128 -8.0755,62.89134 -8.0755,62.89134 -8.0798,152.00314 c -4.4439,83.60172 -8.1778,152.18172 -8.2975,152.4 -0.2861,0.52155 -1.1945,0.64553 -1.5475,0.21122 -0.1978,-0.24339 2.0967,-44.87379 7.8732,-153.14039 l 8.1524,-152.79688 7.947,-62.0448 c 4.3708,-34.12463 8.0495,-62.46151 8.1748,-62.97083 0.2112,-0.85814 14.9581,-22.10322 16.2917,-23.4706 0.3428,-0.35142 2.3959,-1.22018 5.1535,-2.18066 2.521,-0.8781 4.7832,-1.71294 5.0271,-1.85522 0.2906,-0.16959 -10.4239,-0.26146 -31.1082,-0.26673 l -31.5516,-0.008 v 237.86038 237.86043 h 77.6552 77.6552 z m 0,-247.91459 v -8.20208 h -77.6552 -77.6552 v 8.20208 8.20208 h 77.6552 77.6552 z m 38.1607,488.64025 c -0.1789,-0.17889 -0.3253,-0.48001 -0.3253,-0.66919 0,-0.27659 -2.1139,-0.34396 -10.795,-0.34396 -8.0433,0 -10.8759,-0.0809 -11.1125,-0.3175 -0.2379,-0.23794 -0.3175,-3.4372 -0.3175,-12.76866 0,-12.16459 -0.012,-12.45875 -0.5291,-12.78159 -0.2911,-0.18177 -0.5292,-0.50705 -0.5292,-0.72287 0,-0.21582 0.2381,-0.5411 0.5292,-0.72287 0.5262,-0.32861 0.5291,-0.61701 0.5291,-51.40005 0,-50.78304 0,-51.07144 -0.5291,-51.40005 -0.2911,-0.18177 -0.5292,-0.56658 -0.5292,-0.85516 0,-0.28858 0.2381,-0.67339 0.5292,-0.85516 0.5262,-0.32861 0.5291,-0.61701 0.5291,-51.40005 0,-50.78304 0,-51.07144 -0.5291,-51.40005 -0.2911,-0.18177 -0.5292,-0.50705 -0.5292,-0.72287 0,-0.21582 0.2381,-0.5411 0.5292,-0.72287 0.5262,-0.32861 0.5291,-0.61701 0.5291,-51.40005 0,-50.78304 0,-51.07144 -0.5291,-51.40006 -0.2911,-0.18176 -0.5292,-0.56658 -0.5292,-0.85515 0,-0.28858 0.2381,-0.67339 0.5292,-0.85515 0.5262,-0.32862 0.5291,-0.61702 0.5291,-51.40006 0,-50.78304 0,-51.07144 -0.5291,-51.40006 -0.6759,-0.42211 -0.6759,-1.02361 0,-1.44572 0.5233,-0.32683 0.5291,-0.61702 0.5291,-26.30939 0,-23.26442 0.043,-26.02236 0.4158,-26.39469 0.3761,-0.37612 7.945,-0.41577 79.3561,-0.41577 71.4112,0 78.98,0.0396 79.3561,0.41577 0.3774,0.37739 0.4158,23.3358 0.4158,248.65543 0,192.7225 -0.071,248.31067 -0.3175,248.55715 -0.2027,0.20267 -1.2324,0.3175 -2.8468,0.3175 -2.2427,0 -2.5667,0.06 -2.8597,0.52917 -0.1818,0.29104 -0.5666,0.52917 -0.8552,0.52917 -0.2886,0 -0.6734,-0.23813 -0.8551,-0.52917 -0.3242,-0.51911 -0.617,-0.52917 -15.4176,-0.52917 h -15.0872 l -0.2612,0.59532 c -0.1456,0.33186 -0.4953,0.59531 -0.7903,0.59531 -0.295,0 -0.6448,-0.26345 -0.7904,-0.59531 l -0.2612,-0.59532 h -15.1508 c -12.6924,0 -15.1508,0.0591 -15.1508,0.36449 0,1.03971 -1.6664,1.16637 -1.9886,0.15113 -0.1598,-0.50318 -0.5284,-0.51562 -15.2967,-0.51562 h -15.1329 l -0.2612,0.59532 c -0.1456,0.33186 -0.4954,0.59531 -0.7904,0.59531 -0.2949,0 -0.6447,-0.26345 -0.7903,-0.59531 l -0.2612,-0.59532 h -15.088 -15.0881 l -0.2612,0.59378 c -0.3051,0.69363 -0.9288,0.88167 -1.3911,0.41937 z M 1720.661,555.53572 V 317.6753 h -42.565 -42.565 l -7.9411,8.6894 -7.9412,8.6894 -8.0955,48.56934 -8.0954,48.56933 -8.0741,69.14595 -8.074,69.14596 -8.0719,102.65834 c -4.4396,56.46209 -8.1721,102.83693 -8.2946,103.05521 -0.293,0.52221 -1.1985,0.64485 -1.5585,0.21109 -0.2063,-0.24868 1.9725,-28.97042 7.884,-103.92789 l 8.1692,-103.58425 8.0828,-69.18097 8.0828,-69.18098 7.9281,-47.50028 c 4.3604,-26.12515 8.0525,-47.93823 8.2045,-48.47351 0.2037,-0.71696 2.1562,-3.02962 7.4153,-8.78288 3.9263,-4.29531 7.1388,-7.87571 7.1388,-7.95646 0,-0.0807 -15.0614,-0.1468 -33.4698,-0.1468 h -33.4698 v 237.86042 237.86043 h 77.6552 77.6552 z m 0,-247.91459 v -8.20208 h -77.6552 -77.6552 v 8.20208 8.20208 h 77.6552 77.6552 z"
         id="path8207"
         inkscape:connector-curvature="0" />
      <path
         style="fill:#575757;stroke-width:0.26458335"
         d="m 1239.6496,795.64805 -0.2503,-0.65853 -10.9218,-0.0691 -10.9217,-0.0691 -0.07,-8.92225 c -0.067,-8.59444 -0.089,-8.9326 -0.5953,-9.20359 -0.6775,-0.36256 -0.6756,-1.22219 0,-1.58562 0.526,-0.28149 0.5292,-0.55398 0.5292,-45.11146 0,-44.55748 0,-44.82997 -0.5292,-45.11146 -0.6805,-0.3642 -0.6805,-1.2233 0,-1.5875 0.526,-0.28149 0.5292,-0.55399 0.5292,-45.24375 0,-44.68977 0,-44.96226 -0.5292,-45.24376 -0.6773,-0.36247 -0.6773,-0.96043 0,-1.32291 0.526,-0.28149 0.5292,-0.55399 0.5292,-45.24375 0,-44.68977 0,-44.96226 -0.5292,-45.24376 -0.6773,-0.36248 -0.6773,-0.96043 0,-1.32291 0.526,-0.2815 0.5292,-0.55399 0.5292,-45.24375 0,-44.68977 0,-44.96226 -0.5292,-45.24376 -0.6773,-0.36248 -0.6773,-0.96043 0,-1.32291 0.526,-0.2815 0.5292,-0.55399 0.5292,-45.24376 0,-44.68976 0,-44.96225 -0.5292,-45.24375 -0.6761,-0.36183 -0.6776,-0.96025 0,-1.32106 0.5067,-0.27116 0.5282,-0.60915 0.5953,-9.33587 l 0.07,-9.05453 h 79.375 79.375 v 248.5761 248.57605 l -2.7076,0.0754 c -2.3769,0.0661 -2.7416,0.13886 -2.9859,0.59531 -0.3599,0.67255 -1.2204,0.66755 -1.5825,-0.009 -0.2782,-0.51974 -0.554,-0.52916 -15.494,-0.52916 h -15.2117 l -0.2515,0.66146 c -0.1383,0.3638 -0.4359,0.66145 -0.6614,0.66145 -0.2255,0 -0.5232,-0.29765 -0.6615,-0.66145 l -0.2515,-0.66146 h -15.2266 -15.2267 l -0.2515,0.66146 c -0.1553,0.40859 -0.4587,0.66145 -0.7937,0.66145 -0.335,0 -0.6384,-0.25286 -0.7938,-0.66145 l -0.2514,-0.66146 h -15.2267 -15.2266 l -0.2515,0.66146 c -0.1383,0.3638 -0.436,0.66145 -0.6615,0.66145 -0.2254,0 -0.5231,-0.29765 -0.6614,-0.66145 l -0.2515,-0.66146 h -15.2266 -15.2267 l -0.2515,0.66146 c -0.3225,0.84822 -0.9998,0.84973 -1.3218,0.003 z M 1374.7183,555.53572 V 317.543 l -42.5398,-0.0669 c -33.9053,-0.0534 -42.5592,2.6e-4 -42.6358,0.26458 -0.053,0.18234 -3.6829,102.84435 -8.0668,228.13779 -4.3838,125.29344 -8.0577,228.46111 -8.1641,229.26147 l -0.1935,1.45521 h -24.7385 -24.7386 v -0.66146 -0.66146 l 24.0771,-0.13229 24.0771,-0.13229 0.2092,-3.04271 c 0.4373,-6.3591 16.0641,-454.12943 15.856,-454.33754 -0.1203,-0.12025 -15.6309,-0.18843 -34.468,-0.1515 l -34.2493,0.0671 -0.068,237.72813 c -0.037,130.75047 -0.011,237.87718 0.058,238.05931 0.1003,0.26435 15.8101,0.31774 77.8551,0.26459 l 77.7295,-0.0666 z m 0,-247.91459 v -8.33438 h -77.7875 -77.7875 l -0.07,8.06706 c -0.039,4.43688 -0.013,8.21732 0.058,8.40097 0.1028,0.26798 15.4747,0.32076 77.8576,0.26732 l 77.7295,-0.0666 z m 37.9688,488.02692 -0.2503,-0.65853 -10.9218,-0.0691 -10.9217,-0.0691 -0.071,-6.14484 c -0.067,-5.8165 -0.099,-6.15987 -0.5953,-6.42546 -0.6729,-0.36015 -0.6707,-0.95877 0,-1.32033 0.5266,-0.28183 0.5291,-0.55398 0.5291,-56.62083 0,-56.06685 0,-56.339 -0.5291,-56.62084 -0.2911,-0.15576 -0.5292,-0.51295 -0.5292,-0.79375 0,-0.2808 0.2381,-0.63799 0.5292,-0.79375 0.5266,-0.28183 0.5291,-0.55398 0.5291,-56.62083 0,-56.06686 0,-56.33901 -0.5291,-56.62084 -0.6805,-0.3642 -0.6805,-1.2233 0,-1.5875 0.5266,-0.28183 0.5291,-0.55398 0.5291,-56.62084 0,-56.06684 0,-56.33899 -0.5291,-56.62083 -0.6805,-0.36419 -0.6805,-1.22332 0,-1.5875 0.5266,-0.28184 0.5291,-0.55399 0.5291,-56.62084 0,-56.06684 0,-56.33899 -0.5291,-56.62083 -0.6794,-0.3636 -0.6809,-1.22312 0,-1.58605 0.5119,-0.27395 0.5284,-0.60928 0.5953,-12.114 l 0.069,-11.83225 h 79.375 79.375 v 248.5761 248.57605 l -2.7076,0.0754 c -2.3769,0.0661 -2.7416,0.13886 -2.9859,0.59531 -0.3599,0.67255 -1.2203,0.66755 -1.5825,-0.009 -0.2782,-0.51974 -0.554,-0.52916 -15.494,-0.52916 h -15.2108 l -0.2515,0.66146 c -0.1383,0.3638 -0.436,0.66145 -0.6614,0.66145 -0.2255,0 -0.5232,-0.29765 -0.6615,-0.66145 l -0.2515,-0.66146 h -15.2266 -15.2267 l -0.2515,0.66146 c -0.1553,0.40859 -0.4587,0.66145 -0.7937,0.66145 -0.335,0 -0.6384,-0.25286 -0.7938,-0.66145 l -0.2514,-0.66146 h -15.2267 -15.2266 l -0.2515,0.66146 c -0.1383,0.3638 -0.436,0.66145 -0.6615,0.66145 -0.2254,0 -0.5231,-0.29765 -0.6614,-0.66145 l -0.2515,-0.66146 h -15.2266 -15.2267 l -0.2515,0.66146 c -0.3225,0.84822 -0.9998,0.84973 -1.3218,0.003 z M 1547.7558,555.53572 V 317.543 l -42.6423,-0.0669 -42.6423,-0.0669 -8.0879,2.8604 -8.0879,2.86041 -8.0654,11.44047 -8.0653,11.44047 -8.0876,63.0244 -8.0876,63.02441 -8.0551,151.34167 c -4.4303,83.23792 -8.0872,151.69886 -8.1263,152.13542 -0.058,0.65133 -0.1897,0.79375 -0.7325,0.79375 -0.6572,0 -0.6609,-0.0137 -0.5804,-2.11666 0.045,-1.16417 3.7071,-70.10136 8.1389,-153.19376 l 8.0579,-151.07709 8.0363,-62.48373 c 4.42,-34.36605 8.1342,-62.64339 8.254,-62.83854 0.6387,-1.04119 15.5736,-22.12045 15.9429,-22.50201 0.2403,-0.24825 2.5204,-1.18244 5.0671,-2.07597 6.3142,-2.21548 6.0854,-2.12546 6.0854,-2.39441 0,-0.14234 -12.9813,-0.21245 -31.9485,-0.17255 l -31.9484,0.0672 -0.068,237.72813 c -0.037,130.75047 -0.011,237.87718 0.058,238.05931 0.1003,0.26435 15.8102,0.31774 77.8551,0.26459 l 77.7295,-0.0666 z m 0,-247.91459 v -8.33438 h -77.7875 -77.7875 l -0.07,8.06706 c -0.039,4.43688 -0.013,8.21732 0.058,8.40097 0.1028,0.26798 15.4747,0.32076 77.8576,0.26732 l 77.7295,-0.0666 z m 37.9688,488.02692 -0.2503,-0.65853 -10.9218,-0.0691 -10.9217,-0.0691 -0.069,-12.62592 c -0.067,-12.29844 -0.082,-12.63322 -0.5953,-12.90775 -0.675,-0.36124 -0.6739,-0.95954 0,-1.32154 0.5264,-0.2817 0.5292,-0.55399 0.5292,-51.46146 0,-50.90748 0,-51.17976 -0.5292,-51.46146 -0.291,-0.15576 -0.5291,-0.51295 -0.5291,-0.79375 0,-0.2808 0.2381,-0.63799 0.5291,-0.79375 0.5264,-0.2817 0.5292,-0.55399 0.5292,-51.46146 0,-50.90748 0,-51.17976 -0.5292,-51.46146 -0.291,-0.15576 -0.5291,-0.45342 -0.5291,-0.66146 0,-0.20804 0.2381,-0.5057 0.5291,-0.66146 0.5264,-0.2817 0.5292,-0.55398 0.5292,-51.46146 0,-50.90747 0,-51.17976 -0.5292,-51.46146 -0.291,-0.15576 -0.5291,-0.51295 -0.5291,-0.79375 0,-0.2808 0.2381,-0.63799 0.5291,-0.79375 0.5264,-0.2817 0.5292,-0.55399 0.5292,-51.46146 0,-50.90747 0,-51.17976 -0.5292,-51.46146 -0.6768,-0.36225 -0.6774,-0.96036 0,-1.32223 0.5213,-0.279 0.5287,-0.60958 0.5953,-26.53379 l 0.066,-26.25128 h 79.375 79.375 v 248.5761 248.57605 l -2.7076,0.0754 c -2.3769,0.0661 -2.7416,0.13886 -2.9858,0.59531 -0.36,0.67255 -1.2204,0.66755 -1.5826,-0.009 -0.2782,-0.51974 -0.554,-0.52916 -15.494,-0.52916 h -15.2108 l -0.2515,0.66146 c -0.1383,0.3638 -0.436,0.66145 -0.6614,0.66145 -0.2255,0 -0.5232,-0.29765 -0.6615,-0.66145 l -0.2515,-0.66146 h -15.2266 -15.2267 l -0.2514,0.66146 c -0.1554,0.40859 -0.4588,0.66145 -0.7938,0.66145 -0.335,0 -0.6384,-0.25286 -0.7937,-0.66145 l -0.2515,-0.66146 h -15.2267 -15.2266 l -0.2515,0.66146 c -0.1383,0.3638 -0.436,0.66145 -0.6615,0.66145 -0.2254,0 -0.5231,-0.29765 -0.6614,-0.66145 l -0.2515,-0.66146 h -15.2266 -15.2267 l -0.2515,0.66146 c -0.3225,0.84822 -0.9998,0.84973 -1.3218,0.003 z M 1720.7933,555.53572 V 317.543 l -42.6394,-0.0669 -42.6395,-0.067 -8.0649,8.82099 -8.0649,8.82099 -8.0957,48.57122 -8.0958,48.57123 -8.0869,69.27786 -8.0868,69.27787 -8.0518,102.26146 c -4.4284,56.2438 -8.0835,102.49959 -8.1224,102.79063 -0.049,0.36922 -0.2706,0.52916 -0.7321,0.52916 -0.6405,0 -0.659,-0.0503 -0.5857,-1.5875 0.042,-0.87312 3.698,-47.54562 8.1253,-103.71667 l 8.0497,-102.12917 8.0831,-69.1833 8.0831,-69.1833 8.0726,-48.27701 c 6.1739,-36.92203 8.1802,-48.40216 8.5301,-48.80913 0.2516,-0.29267 3.5233,-3.89259 7.2705,-7.99982 3.7471,-4.10722 6.813,-7.59554 6.813,-7.7518 0,-0.2013 -9.8141,-0.26455 -33.6683,-0.21697 l -33.6682,0.0672 -0.068,237.72814 c -0.037,130.75047 -0.011,237.87718 0.058,238.05931 0.1003,0.26435 15.8102,0.31774 77.8551,0.26459 l 77.7295,-0.0666 z m 0,-247.91459 v -8.33438 h -77.7875 -77.7875 l -0.07,8.06706 c -0.039,4.43688 -0.012,8.21732 0.058,8.40097 0.1028,0.26798 15.4747,0.32076 77.8576,0.26732 l 77.7295,-0.0666 z"
         id="path8205"
         inkscape:connector-curvature="0" />
      <path
         style="fill:#2a2a2a;stroke-width:0.26458335"
         d="m 1239.7774,795.44667 -0.2612,-0.59531 -10.914,-0.0691 -10.9141,-0.0691 v -8.85832 c 0,-8.57182 -0.017,-8.86907 -0.5292,-9.18885 -0.6762,-0.42228 -0.6762,-1.04241 0,-1.46468 0.5258,-0.32837 0.5292,-0.61704 0.5292,-45.17287 0,-44.55584 0,-44.8445 -0.5292,-45.17287 -0.6762,-0.42228 -0.6762,-1.04241 0,-1.46468 0.5258,-0.32838 0.5292,-0.61704 0.5292,-45.30516 0,-44.68813 0,-44.97679 -0.5292,-45.30516 -0.6708,-0.41895 -0.6708,-0.78116 0,-1.2001 0.5258,-0.32838 0.5292,-0.61704 0.5292,-45.30516 0,-44.68814 0,-44.97679 -0.5292,-45.30516 -0.6708,-0.41895 -0.6708,-0.78116 0,-1.20011 0.5258,-0.32836 0.5292,-0.61701 0.5292,-45.30515 0,-44.68814 0,-44.97679 -0.5292,-45.30516 -0.6708,-0.41895 -0.6708,-0.78116 0,-1.20011 0.5258,-0.32837 0.5292,-0.61701 0.5292,-45.30516 0,-44.68814 0,-44.97679 -0.5292,-45.30515 -0.6698,-0.41835 -0.6709,-0.7811 0,-1.19791 0.5053,-0.31555 0.5284,-0.67432 0.5953,-9.25792 l 0.07,-8.92964 h 79.1105 79.1104 l 0.066,248.37761 0.066,248.37762 h -2.6437 c -2.3572,0 -2.6796,0.0574 -2.9742,0.52916 -0.4228,0.67694 -1.0426,0.67601 -1.4661,-0.003 -0.3268,-0.52337 -0.5602,-0.53031 -15.6079,-0.46302 l -15.2761,0.0688 -0.2612,0.59531 c -0.1437,0.32742 -0.3833,0.59531 -0.5326,0.59531 -0.1493,0 -0.3889,-0.26789 -0.5326,-0.59531 l -0.2611,-0.59531 h -15.3459 -15.3458 l -0.2612,0.59531 c -0.3404,0.77589 -0.7648,0.75364 -1.3034,-0.0683 l -0.4348,-0.6636 -15.2722,0.0683 -15.2722,0.0683 -0.2611,0.59531 c -0.1437,0.32742 -0.3833,0.59531 -0.5326,0.59531 -0.1493,0 -0.3889,-0.26789 -0.5326,-0.59531 l -0.2612,-0.59531 h -15.3458 -15.3458 l -0.2612,0.59531 c -0.1436,0.32742 -0.3833,0.59531 -0.5326,0.59531 -0.1492,0 -0.3889,-0.26789 -0.5326,-0.59531 z m 135.0203,-1.83885 c 0.4632,-0.46318 0.4632,-475.68101 0,-476.14419 -0.4736,-0.47358 -84.9696,-0.46048 -85.3292,0.0132 -0.1428,0.18815 -3.697,98.59623 -8.2445,228.26928 -4.3964,125.3662 -8.0571,228.56363 -8.1348,229.32761 l -0.1413,1.38907 h -24.5872 c -24.4108,0 -24.5872,-0.004 -24.5872,-0.52917 0,-0.52525 0.1764,-0.52917 23.9124,-0.52917 20.4824,0 23.9577,-0.0546 24.2284,-0.38073 0.4636,-0.55867 16.5519,-457.00006 16.126,-457.5132 -0.4178,-0.50349 -68.4735,-0.54978 -68.9764,-0.0469 -0.4631,0.46319 -0.4631,475.68101 0,476.14419 0.4625,0.46252 155.2713,0.46252 155.7338,0 z m 0,-477.57294 c 0.4538,-0.45385 0.4538,-16.37366 0,-16.8275 -0.4625,-0.46251 -155.2713,-0.46251 -155.7338,0 -0.4538,0.45384 -0.4538,16.37365 0,16.8275 0.4625,0.4625 155.2713,0.4625 155.7338,0 z m 38.0172,479.41179 -0.2612,-0.59531 -10.914,-0.0691 -10.9141,-0.0691 v -6.08023 c 0,-5.79368 -0.025,-6.09581 -0.5292,-6.41072 -0.291,-0.18174 -0.5291,-0.45178 -0.5291,-0.60005 0,-0.14827 0.2381,-0.4183 0.5291,-0.60005 0.5265,-0.32879 0.5292,-0.61703 0.5292,-56.68224 0,-56.06521 0,-56.35345 -0.5292,-56.68225 -0.291,-0.18174 -0.5291,-0.51131 -0.5291,-0.73234 0,-0.22103 0.2381,-0.5506 0.5291,-0.73234 0.5265,-0.3288 0.5292,-0.61703 0.5292,-56.68224 0,-56.06522 0,-56.35345 -0.5292,-56.68225 -0.291,-0.18174 -0.5291,-0.51131 -0.5291,-0.73234 0,-0.22103 0.2381,-0.5506 0.5291,-0.73234 0.5265,-0.3288 0.5292,-0.61704 0.5292,-56.68225 0,-56.06522 0,-56.35344 -0.5292,-56.68223 -0.6762,-0.4223 -0.6762,-1.0424 0,-1.4647 0.5265,-0.32879 0.5292,-0.61701 0.5292,-56.68224 0,-56.06522 0,-56.35345 -0.5292,-56.68224 -0.6752,-0.42171 -0.6764,-1.04225 0,-1.46297 0.5108,-0.31905 0.5284,-0.6744 0.5953,-12.03604 l 0.069,-11.70729 h 79.1104 79.1104 l 0.066,248.37761 0.066,248.37762 h -2.6437 c -2.3572,0 -2.6796,0.0574 -2.9742,0.52916 -0.4228,0.67694 -1.0426,0.67601 -1.4661,-0.003 -0.3268,-0.52337 -0.5602,-0.53031 -15.6079,-0.46302 l -15.2761,0.0683 -0.2612,0.59531 c -0.1436,0.32742 -0.3833,0.59531 -0.5325,0.59531 -0.1493,0 -0.389,-0.26789 -0.5326,-0.59531 l -0.2612,-0.59531 h -15.3458 -15.3459 l -0.2611,0.59531 c -0.3404,0.77589 -0.7649,0.75364 -1.3034,-0.0683 l -0.4348,-0.6636 -15.2722,0.0683 -15.2722,0.0683 -0.2612,0.59531 c -0.1436,0.32742 -0.3833,0.59531 -0.5326,0.59531 -0.1492,0 -0.3889,-0.26789 -0.5325,-0.59531 l -0.2612,-0.59531 h -15.3458 -15.3459 l -0.2612,0.59531 c -0.1436,0.32742 -0.3833,0.59531 -0.5325,0.59531 -0.1493,0 -0.389,-0.26789 -0.5326,-0.59531 z m 135.0203,-1.83885 c 0.4632,-0.46318 0.4632,-475.68101 0,-476.14419 -0.2443,-0.24431 -10.1215,-0.3175 -42.848,-0.3175 h -42.5304 l -7.848,2.78074 c -4.3163,1.52942 -8.0093,2.87109 -8.2066,2.98149 -0.2895,0.16201 -13.558,18.77417 -15.8957,22.29735 -0.5792,0.87299 -1.1978,5.4149 -8.7026,63.89688 l -8.079,62.95709 -8.0601,151.30561 c -4.433,83.21808 -8.06,151.64925 -8.06,152.06928 0,0.58322 -0.1231,0.76366 -0.5209,0.76366 -0.4857,0 -0.5112,-0.13867 -0.3775,-2.05052 0.079,-1.12778 3.762,-69.97568 8.1847,-152.99532 l 8.0411,-150.9448 7.9443,-61.9125 c 4.3694,-34.05187 8.0048,-62.26969 8.0786,-62.70625 0.08,-0.47075 3.4018,-5.42348 8.1638,-12.17084 l 8.0294,-11.37708 5.5401,-1.98437 c 5.8965,-2.11203 6.2769,-2.27985 6.0394,-2.66412 -0.2449,-0.39629 -64.2294,-0.3258 -64.6264,0.0712 -0.4632,0.46318 -0.4632,475.68101 0,476.14419 0.4625,0.46252 155.2713,0.46252 155.7338,0 z m 0,-477.57294 c 0.4538,-0.45385 0.4538,-16.37366 0,-16.8275 -0.4625,-0.46251 -155.2713,-0.46251 -155.7338,0 -0.2331,0.23311 -0.3175,2.46944 -0.3175,8.41375 0,5.94431 0.084,8.18064 0.3175,8.41375 0.4625,0.4625 155.2713,0.4625 155.7338,0 z m 38.0172,479.41179 -0.2612,-0.59531 -10.914,-0.0691 -10.9141,-0.0691 v -12.56252 c 0,-12.27598 -0.012,-12.57006 -0.5292,-12.89301 -0.291,-0.18175 -0.5291,-0.45178 -0.5291,-0.60005 0,-0.14827 0.2381,-0.41831 0.5291,-0.60005 0.5262,-0.32864 0.5292,-0.61704 0.5292,-51.52287 0,-50.90584 0,-51.19423 -0.5292,-51.52287 -0.291,-0.18174 -0.5291,-0.51131 -0.5291,-0.73234 0,-0.22103 0.2381,-0.5506 0.5291,-0.73234 0.5262,-0.32864 0.5292,-0.61704 0.5292,-51.52287 0,-50.90584 0,-51.19423 -0.5292,-51.52287 -0.291,-0.18175 -0.5291,-0.45178 -0.5291,-0.60005 0,-0.14827 0.2381,-0.41831 0.5291,-0.60005 0.5262,-0.32864 0.5292,-0.61703 0.5292,-51.52287 0,-50.90585 0,-51.19424 -0.5292,-51.52286 -0.6762,-0.4223 -0.6762,-1.0424 0,-1.4647 0.5262,-0.32862 0.5292,-0.61701 0.5292,-51.52286 0,-50.90585 0,-51.19424 -0.5292,-51.52286 -0.6704,-0.41873 -0.6708,-0.78114 0,-1.19931 0.5209,-0.32531 0.5288,-0.67462 0.5953,-26.45583 l 0.066,-26.12617 h 79.1104 79.1104 l 0.066,248.37761 0.066,248.37762 h -2.6437 c -2.3572,0 -2.6796,0.0574 -2.9742,0.52916 -0.4228,0.67694 -1.0425,0.67601 -1.4661,-0.003 -0.3268,-0.52337 -0.5602,-0.53031 -15.6079,-0.46302 l -15.2761,0.0683 -0.2612,0.59531 c -0.1436,0.32742 -0.3833,0.59531 -0.5325,0.59531 -0.1493,0 -0.389,-0.26789 -0.5326,-0.59531 l -0.2612,-0.59531 h -15.3458 -15.3459 l -0.2611,0.59531 c -0.3404,0.77589 -0.7649,0.75364 -1.3034,-0.0683 l -0.4348,-0.6636 -15.2722,0.0683 -15.2722,0.0683 -0.2612,0.59531 c -0.1436,0.32742 -0.3833,0.59531 -0.5326,0.59531 -0.1492,0 -0.3889,-0.26789 -0.5325,-0.59531 l -0.2612,-0.59531 h -15.3458 -15.3459 l -0.2611,0.59531 c -0.1437,0.32742 -0.3833,0.59531 -0.5326,0.59531 -0.1493,0 -0.389,-0.26789 -0.5326,-0.59531 z m 135.0203,-1.83885 c 0.4632,-0.46318 0.4632,-475.68101 0,-476.14419 -0.2443,-0.2443 -10.0611,-0.3175 -42.5763,-0.3175 -23.2423,0 -42.4505,0.0736 -42.6848,0.16351 -0.391,0.15003 -15.9068,16.94721 -16.3459,17.69584 -0.1058,0.18024 -3.8248,22.12034 -8.2645,48.75579 l -8.0722,48.4281 -8.0871,69.27995 -8.0871,69.27995 -8.0563,102.25318 c -4.4309,56.23925 -8.0562,102.46527 -8.0562,102.72448 0,0.29872 -0.1986,0.4713 -0.5423,0.4713 -0.5025,0 -0.5305,-0.11168 -0.3812,-1.52135 0.089,-0.83675 3.7808,-47.47948 8.2047,-103.65053 l 8.0435,-102.12917 8.0831,-69.1833 8.0831,-69.1833 8.0726,-48.27701 c 6.1739,-36.92204 8.1802,-48.40216 8.53,-48.80913 0.2516,-0.29267 3.5346,-3.90486 7.2955,-8.02708 4.4558,-4.88385 6.7861,-7.63017 6.689,-7.88309 -0.1298,-0.33831 -4.4571,-0.38814 -33.7064,-0.38814 -25.7475,0 -33.6314,0.0739 -33.875,0.3175 -0.4631,0.46318 -0.4631,475.68101 0,476.14419 0.4626,0.46252 155.2713,0.46252 155.7338,0 z m 0,-477.57294 c 0.4538,-0.45385 0.4538,-16.37366 0,-16.8275 -0.4625,-0.46251 -155.2712,-0.46251 -155.7338,0 -0.2331,0.23311 -0.3175,2.46944 -0.3175,8.41375 0,5.94431 0.084,8.18064 0.3175,8.41375 0.4626,0.4625 155.2713,0.4625 155.7338,0 z"
         id="path8203"
         inkscape:connector-curvature="0" />
      <path
         style="fill:#1a1a1a;stroke-width:0.26458335"
         d="m 1239.9142,795.38346 -0.2503,-0.65852 -10.9218,-0.0691 -10.9217,-0.0691 -0.069,-8.86355 c -0.069,-8.82144 -0.072,-8.86579 -0.6615,-9.33698 l -0.5922,-0.47345 0.5953,-0.41873 0.5953,-0.4187 v -45.04689 -45.04693 l -0.5953,-0.42913 -0.5953,-0.42915 0.5953,-0.42916 0.5953,-0.42912 v -45.17922 -45.17922 l -0.5862,-0.38926 -0.5863,-0.38928 0.5863,-0.31377 0.5862,-0.31377 V 546.29827 501.0961 l -0.5862,-0.38927 -0.5863,-0.38928 0.5863,-0.31376 0.5862,-0.31377 v -45.20217 -45.20217 l -0.5862,-0.38927 -0.5863,-0.38928 0.5863,-0.31377 0.5862,-0.31376 v -45.22514 -45.22513 l -0.5723,-0.30632 -0.5724,-0.30632 0.5693,-0.43059 c 0.5606,-0.42399 0.5704,-0.5686 0.6385,-9.42643 l 0.069,-8.99583 h 79.1105 79.1103 v 248.31147 248.31147 l -2.6458,0.0742 c -2.366,0.0663 -2.6959,0.13629 -3.1193,0.66146 l -0.4734,0.58729 -0.4188,-0.59531 -0.4187,-0.59531 h -15.4523 -15.4524 l -0.2515,0.66146 c -0.1383,0.3638 -0.3169,0.66145 -0.3969,0.66145 -0.08,0 -0.2586,-0.29765 -0.3969,-0.66145 l -0.2515,-0.66146 h -15.4912 -15.4912 l -0.2515,0.66146 c -0.1383,0.3638 -0.3764,0.66145 -0.5292,0.66145 -0.1527,0 -0.3908,-0.29765 -0.5291,-0.66145 l -0.2515,-0.66146 h -15.4912 -15.4913 l -0.2514,0.66146 c -0.1384,0.3638 -0.3169,0.66145 -0.3969,0.66145 -0.08,0 -0.2586,-0.29765 -0.3969,-0.66145 l -0.2515,-0.66146 h -15.4912 -15.4912 l -0.2515,0.66146 c -0.3161,0.83126 -0.4775,0.83187 -0.7926,0.003 z m 135.0687,-239.84774 v -238.2573 l -42.8044,-0.0669 c -34.117,-0.0534 -42.8238,2.7e-4 -42.9004,0.26459 -0.053,0.18234 -3.6829,102.84433 -8.0668,228.13778 -4.3838,125.29344 -8.0577,228.4611 -8.1641,229.26147 l -0.1935,1.4552 h -24.4739 c -21.5783,0 -24.474,-0.047 -24.474,-0.39687 0,-0.34891 2.9104,-0.41286 24.0771,-0.52917 l 24.0771,-0.13229 0.2092,-3.04271 c 0.3333,-4.84679 16.0985,-454.34364 15.9489,-454.7336 -0.1115,-0.29056 -6.1515,-0.34004 -34.7372,-0.28458 l -34.6022,0.0671 -0.068,237.99271 c -0.037,130.896 -0.011,238.14176 0.058,238.3239 0.1003,0.26434 15.8631,0.31774 78.1197,0.26458 l 77.9941,-0.0666 z m 0,-247.91459 v -8.59896 h -78.0521 -78.0521 l -0.07,8.33194 c -0.039,4.58257 -0.012,8.48207 0.058,8.66555 0.1027,0.26758 15.5635,0.32043 78.1221,0.26702 l 77.9941,-0.0666 z m 37.9688,487.76233 -0.2504,-0.65852 -10.9217,-0.0691 -10.9217,-0.0691 -0.07,-6.08542 c -0.068,-5.87322 -0.09,-6.10042 -0.6385,-6.516 l -0.5682,-0.43061 0.5723,-0.30631 0.5724,-0.30633 v -56.57925 -56.57927 l -0.5953,-0.42912 -0.5953,-0.42916 0.5953,-0.42915 0.5953,-0.42913 v -56.5563 -56.55631 l -0.5953,-0.42913 -0.5953,-0.42915 0.5953,-0.42915 0.5953,-0.42913 v -56.55631 -56.55629 l -0.5953,-0.42915 -0.5953,-0.42914 0.5953,-0.42915 0.5953,-0.42914 v -56.5563 -56.55629 l -0.5953,-0.41872 -0.5953,-0.41873 0.5928,-0.47344 0.5929,-0.47344 0.069,-11.77396 0.069,-11.77396 h 79.1104 79.1104 v 248.31151 248.31147 l -2.6458,0.0742 c -2.366,0.0663 -2.6959,0.13629 -3.1193,0.66146 l -0.4734,0.58729 -0.4188,-0.59531 -0.4187,-0.59531 h -15.4524 -15.4524 l -0.2515,0.66146 c -0.1383,0.3638 -0.3169,0.66145 -0.3968,0.66145 -0.08,0 -0.2586,-0.29765 -0.3969,-0.66145 l -0.2515,-0.66146 h -15.4912 -15.4912 l -0.2515,0.66146 c -0.1384,0.3638 -0.3765,0.66145 -0.5292,0.66145 -0.1527,0 -0.3908,-0.29765 -0.5292,-0.66145 l -0.2515,-0.66146 h -15.4912 -15.4912 l -0.2515,0.66146 c -0.1383,0.3638 -0.3169,0.66145 -0.3969,0.66145 -0.08,0 -0.2585,-0.29765 -0.3968,-0.66145 l -0.2515,-0.66146 h -15.4912 -15.4913 l -0.2515,0.66146 c -0.316,0.83126 -0.4774,0.83187 -0.7926,0.003 z m 135.0687,-239.84774 v -238.2573 l -42.9069,-0.0669 -42.907,-0.0669 -8.0878,2.8604 -8.0879,2.86041 -8.0654,11.44048 -8.0653,11.44047 -8.0757,62.89211 -8.0757,62.8921 -8.1009,152.13542 c -4.4555,83.67449 -8.207,152.24854 -8.3366,152.38678 -0.1488,0.15875 -0.3201,0.15875 -0.465,0 -0.1302,-0.14274 3.2901,-66.15647 7.9162,-152.78365 l 8.1455,-152.5323 7.947,-62.04479 c 4.3708,-34.12464 8.0495,-62.46151 8.1749,-62.97084 0.1975,-0.80245 14.9013,-22.0373 16.16,-23.33782 0.2403,-0.24825 2.5204,-1.18285 5.067,-2.07689 2.5467,-0.89404 5.1363,-1.80344 5.7547,-2.0209 0.6185,-0.21746 1.1245,-0.56325 1.1245,-0.76843 0,-0.31935 -4.6938,-0.36337 -32.6099,-0.30585 l -32.6099,0.0672 -0.068,237.99271 c -0.037,130.896 -0.011,238.14176 0.058,238.3239 0.1003,0.26434 15.8631,0.31774 78.1197,0.26458 l 77.9941,-0.0666 z m 0,-247.91459 v -8.59896 h -78.0521 -78.0521 l -0.07,8.33194 c -0.039,4.58257 -0.012,8.48207 0.058,8.66555 0.1027,0.26758 15.5635,0.32043 78.1221,0.26702 l 77.9941,-0.0666 z m 37.9688,487.76233 -0.2503,-0.65852 -10.9218,-0.0691 -10.9217,-0.0691 -0.068,-12.56771 c -0.068,-12.51974 -0.071,-12.56935 -0.6385,-12.9983 l -0.57,-0.4306 0.5723,-0.30631 0.5724,-0.30634 v -51.41987 -51.41989 l -0.5953,-0.42913 -0.5953,-0.42915 0.5953,-0.42916 0.5953,-0.42912 v -51.39689 -51.39693 l -0.5863,-0.38926 -0.5863,-0.38928 0.5863,-0.31377 0.5863,-0.31377 v -51.41987 -51.41988 l -0.5953,-0.42914 -0.5953,-0.42915 0.5953,-0.42915 0.5953,-0.42914 v -51.41988 -51.41988 l -0.5724,-0.30632 -0.5723,-0.30632 0.571,-0.43075 0.5711,-0.43076 0.068,-26.19359 0.067,-26.19359 h 79.1104 79.1104 v 248.31147 248.31147 l -2.6458,0.0742 c -2.366,0.0663 -2.6959,0.13629 -3.1193,0.66146 l -0.4734,0.58729 -0.4188,-0.59531 -0.4187,-0.59531 h -15.4524 -15.4524 l -0.2515,0.66146 c -0.1383,0.3638 -0.3169,0.66145 -0.3968,0.66145 -0.08,0 -0.2586,-0.29765 -0.3969,-0.66145 l -0.2515,-0.66146 h -15.4912 -15.4912 l -0.2515,0.66146 c -0.1384,0.3638 -0.3765,0.66145 -0.5292,0.66145 -0.1527,0 -0.3908,-0.29765 -0.5292,-0.66145 l -0.2514,-0.66146 h -15.4913 -15.4912 l -0.2515,0.66146 c -0.1383,0.3638 -0.3169,0.66145 -0.3969,0.66145 -0.08,0 -0.2585,-0.29765 -0.3968,-0.66145 l -0.2515,-0.66146 h -15.4912 -15.4913 l -0.2514,0.66146 c -0.3161,0.83126 -0.4775,0.83187 -0.7927,0.003 z m 135.0687,-239.84774 v -238.2573 l -42.9041,-0.0669 -42.904,-0.0669 -8.0649,8.82098 -8.0648,8.82098 -8.0958,48.57084 -8.0957,48.57084 -8.074,69.14596 -8.0741,69.14596 -8.0946,102.79063 c -4.4521,56.53484 -8.2022,102.90374 -8.3337,103.04198 -0.151,0.15875 -0.3243,0.15875 -0.4703,0 -0.1329,-0.14454 3.2305,-44.10514 7.914,-103.43886 l 8.1452,-103.1875 8.0959,-69.31491 8.096,-69.31491 8.0727,-48.27769 c 6.1718,-36.90968 8.1804,-48.40322 8.5301,-48.81082 0.2516,-0.29321 3.5932,-3.96748 7.4256,-8.16502 4.4861,-4.91341 6.9157,-7.7685 6.8209,-8.01539 -0.1276,-0.33265 -4.6461,-0.37458 -34.0878,-0.31634 l -33.9408,0.0671 -0.068,237.99272 c -0.037,130.896 -0.011,238.14176 0.058,238.3239 0.1003,0.26434 15.8631,0.31774 78.1197,0.26458 l 77.9941,-0.0666 z m 0,-247.91459 v -8.59896 h -78.0521 -78.0521 l -0.07,8.33194 c -0.038,4.58257 -0.012,8.48207 0.058,8.66555 0.1027,0.26758 15.5635,0.32043 78.1221,0.26702 l 77.9941,-0.0666 z"
         id="path8201"
         inkscape:connector-curvature="0" />
      <path
         style="fill:#000000;stroke-width:0.26458335"
         d="m 1240.0323,795.15949 c -0.2513,-0.57226 -0.2601,-0.57277 -11.1656,-0.6418 l -10.914,-0.0691 v -8.8456 c 0,-8.84087 -3e-4,-8.84582 -0.5881,-9.25748 l -0.588,-0.41188 0.588,-0.41188 0.5881,-0.41187 v -45.08144 -45.08146 l -0.5881,-0.41187 -0.588,-0.41188 0.588,-0.41188 0.5881,-0.41187 v -45.21375 c 0,-44.41619 -0.01,-45.22007 -0.5123,-45.57255 -0.5066,-0.35484 -0.5066,-0.36232 0,-0.67869 0.5034,-0.31437 0.5123,-1.10423 0.5123,-45.54642 0,-44.42881 -0.01,-45.23284 -0.5123,-45.58531 -0.5066,-0.35484 -0.5066,-0.36231 0,-0.6787 0.5034,-0.31436 0.5123,-1.10422 0.5123,-45.54641 0,-44.42881 -0.01,-45.23284 -0.5123,-45.58531 -0.5066,-0.35484 -0.5066,-0.36231 0,-0.6787 0.5034,-0.31436 0.5123,-1.10422 0.5123,-45.54641 0,-44.42881 -0.01,-45.23284 -0.5123,-45.58531 -0.5066,-0.35485 -0.5066,-0.36232 0,-0.6787 0.4903,-0.3062 0.5123,-0.70544 0.5123,-9.3135 v -8.99359 h 78.9781 78.9781 v 248.17918 248.17917 h -2.6308 c -2.3968,0 -2.6665,0.0509 -3.0316,0.57219 l -0.4008,0.57219 -0.4741,-0.57751 -0.4741,-0.57753 -15.4704,0.0715 -15.4703,0.0715 -0.2855,0.57271 -0.2855,0.57272 -0.2515,-0.57272 -0.2514,-0.57271 h -15.6104 -15.6104 l -0.2612,0.59531 c -0.1437,0.32742 -0.3238,0.59531 -0.4003,0.59531 -0.077,0 -0.2566,-0.26789 -0.4003,-0.59531 l -0.2612,-0.59531 h -15.6026 -15.6026 l -0.2855,0.57271 -0.2855,0.57272 -0.2515,-0.57272 -0.2514,-0.57271 h -15.6026 -15.6026 l -0.2856,0.57271 -0.2855,0.57272 z m 135.03,-1.28709 c 0.4631,-0.46318 0.4631,-476.21017 0,-476.67335 -0.4736,-0.4736 -85.5,-0.4605 -85.8555,0.0132 -0.139,0.18515 -3.7693,100.77424 -8.248,228.53386 -4.3999,125.51172 -8.0605,228.70915 -8.1348,229.32761 l -0.135,1.12448 h -24.3255 c -16.0405,0 -24.3254,-0.0901 -24.3254,-0.26458 0,-0.17444 8.1472,-0.26458 23.9124,-0.26458 20.308,0 23.9593,-0.0565 24.2235,-0.37484 0.4636,-0.55859 16.5612,-457.52978 16.1354,-458.04287 -0.26,-0.31323 -5.5768,-0.36981 -34.7497,-0.36981 -26.4361,0 -34.5167,0.0738 -34.7604,0.3175 -0.4631,0.46318 -0.4631,476.21017 0,476.67335 0.4626,0.46252 155.8005,0.46252 156.263,0 z m 0,-477.57294 c 0.2335,-0.23355 0.3175,-2.52824 0.3175,-8.67833 0,-6.15009 -0.084,-8.44479 -0.3175,-8.67834 -0.4625,-0.4625 -155.8004,-0.4625 -156.2629,0 -0.4542,0.45416 -0.4542,16.90252 0,17.35667 0.4625,0.46251 155.8004,0.46251 156.2629,0 z m 38.0075,478.86003 c -0.2513,-0.57226 -0.2601,-0.57277 -11.1656,-0.6418 l -10.914,-0.0691 v -6.06748 c 0,-5.70076 -0.031,-6.08917 -0.5123,-6.42628 -0.5066,-0.35483 -0.5066,-0.36232 0,-0.67868 0.504,-0.31478 0.5123,-1.22944 0.5123,-56.92352 v -56.60358 l -0.5881,-0.41188 -0.588,-0.41188 0.588,-0.41188 0.5881,-0.41187 v -56.59083 -56.59084 l -0.5881,-0.41187 -0.588,-0.41188 0.588,-0.41188 0.5881,-0.41187 V 494.68153 438.0907 l -0.5881,-0.41187 -0.588,-0.41188 0.588,-0.41188 0.5881,-0.41188 v -56.59081 -56.59083 l -0.5881,-0.41188 -0.588,-0.41187 0.588,-0.41188 0.5881,-0.41188 v -11.75895 -11.75896 h 78.9781 78.9781 v 248.17918 248.17917 h -2.6308 c -2.3968,0 -2.6665,0.0509 -3.0316,0.57219 l -0.4008,0.57219 -0.4741,-0.57751 -0.4741,-0.57753 -15.4704,0.0715 -15.4703,0.0715 -0.2855,0.57271 -0.2855,0.57272 -0.2514,-0.57272 -0.2515,-0.57271 h -15.6104 -15.6104 l -0.2612,0.59531 c -0.1437,0.32742 -0.3238,0.59531 -0.4003,0.59531 -0.077,0 -0.2566,-0.26789 -0.4003,-0.59531 l -0.2612,-0.59531 h -15.6026 -15.6026 l -0.2855,0.57271 -0.2855,0.57272 -0.2515,-0.57272 -0.2514,-0.57271 h -15.6026 -15.6026 l -0.2856,0.57271 -0.2855,0.57272 z m 135.03,-1.28709 c 0.4631,-0.46318 0.4631,-476.21017 0,-476.67335 -0.2443,-0.24427 -10.1467,-0.319 -42.9287,-0.324 l -42.6111,-0.006 -8.3344,2.94172 -8.3344,2.94171 -7.8052,11.07619 c -4.2929,6.09191 -7.9597,11.34926 -8.1485,11.68301 -0.1969,0.34813 -3.7772,27.3957 -8.3983,63.44536 l -8.055,62.83854 -8.0993,152.00314 c -4.4546,83.60172 -8.1465,152.05274 -8.2043,152.11338 -0.058,0.0606 -0.1495,0.0606 -0.2039,0 -0.054,-0.0606 3.5728,-68.86885 8.0605,-152.90713 l 8.1595,-152.79689 8.0442,-62.58167 8.0442,-62.58168 7.7339,-10.97249 c 4.2537,-6.03487 7.9546,-11.20163 8.2243,-11.48169 0.2697,-0.28006 3.0857,-1.42325 6.2577,-2.54044 9.3601,-3.29663 11.7146,-3.02349 -26.7481,-3.10297 -23.8091,-0.0492 -32.6115,0.0126 -32.8745,0.23083 -0.5004,0.41535 -0.5419,476.19454 -0.042,476.69492 0.4626,0.46252 155.8005,0.46252 156.263,0 z m 0,-477.57294 c 0.2335,-0.23355 0.3175,-2.52824 0.3175,-8.67833 0,-6.15009 -0.084,-8.44479 -0.3175,-8.67834 -0.4625,-0.4625 -155.8004,-0.4625 -156.263,0 -0.2335,0.23355 -0.3175,2.52825 -0.3175,8.67834 0,6.15009 0.084,8.44478 0.3175,8.67833 0.4626,0.46251 155.8005,0.46251 156.263,0 z m 38.0075,478.86003 c -0.2513,-0.57226 -0.2601,-0.57277 -11.1656,-0.6418 l -10.914,-0.0691 v -12.54975 c 0,-12.1117 -0.018,-12.56228 -0.5123,-12.90857 -0.5066,-0.35483 -0.5066,-0.36232 0,-0.67868 0.5038,-0.31462 0.5123,-1.17266 0.5123,-51.76415 v -51.44421 l -0.5881,-0.41187 -0.588,-0.41188 0.588,-0.41188 0.5881,-0.41188 v -51.43145 c 0,-50.56545 -0.01,-51.43749 -0.5123,-51.79026 -0.5066,-0.35483 -0.5066,-0.36232 0,-0.67868 0.5038,-0.31462 0.5123,-1.17266 0.5123,-51.76414 v -51.44421 l -0.5881,-0.41188 -0.588,-0.41188 0.588,-0.41188 0.5881,-0.41188 v -51.43145 c 0,-50.56546 -0.01,-51.4375 -0.5123,-51.79025 -0.5066,-0.35485 -0.5066,-0.36232 0,-0.67871 0.501,-0.31288 0.5123,-0.89471 0.5123,-26.51141 v -26.19151 h 78.9781 78.9781 v 248.17918 248.17917 h -2.6308 c -2.3968,0 -2.6665,0.0509 -3.0316,0.57219 l -0.4008,0.57219 -0.4741,-0.57751 -0.4741,-0.57753 -15.4704,0.0715 -15.4703,0.0715 -0.2855,0.57271 -0.2855,0.57272 -0.2514,-0.57272 -0.2515,-0.57271 h -15.6104 -15.6104 l -0.2612,0.59531 c -0.1436,0.32742 -0.3238,0.59531 -0.4003,0.59531 -0.076,0 -0.2566,-0.26789 -0.4003,-0.59531 l -0.2612,-0.59531 h -15.6026 -15.6025 l -0.2856,0.57271 -0.2855,0.57272 -0.2515,-0.57272 -0.2514,-0.57271 h -15.6026 -15.6026 l -0.2856,0.57271 -0.2855,0.57272 z m 135.03,-1.28709 c 0.4632,-0.46318 0.4632,-476.21017 0,-476.67335 -0.2443,-0.24433 -10.1576,-0.3175 -43.0102,-0.3175 h -42.6927 l -1.1515,1.12447 c -0.6333,0.61847 -4.353,4.64216 -8.2661,8.94155 l -7.1146,7.81706 -8.1316,48.80377 -8.1316,48.80378 -8.0615,69.05625 -8.0615,69.05625 -8.0905,102.65763 c -4.4498,56.46168 -8.1404,102.70755 -8.2014,102.76859 -0.061,0.061 -0.1574,0.0613 -0.214,0 -0.057,-0.0606 3.57,-46.6637 8.0592,-103.56234 l 8.1623,-103.45209 8.0828,-69.18098 8.0828,-69.18097 7.9355,-47.50028 c 4.3646,-26.12516 8.0042,-47.82687 8.088,-48.22603 0.097,-0.46092 2.8481,-3.67484 7.5401,-8.80772 4.0633,-4.44437 7.3877,-8.17186 7.3877,-8.2826 0,-0.8221 -0.5858,-0.83634 -34.3958,-0.83634 -25.9057,0 -33.8347,0.0739 -34.0783,0.3175 -0.4632,0.46318 -0.4632,476.21017 0,476.67335 0.4625,0.46252 155.8004,0.46252 156.2629,0 z m 0,-477.57294 c 0.2335,-0.23355 0.3175,-2.52824 0.3175,-8.67833 0,-6.15009 -0.084,-8.44479 -0.3175,-8.67834 -0.4625,-0.4625 -155.8004,-0.4625 -156.2629,0 -0.4542,0.45416 -0.4542,16.90252 0,17.35667 0.4625,0.46251 155.8004,0.46251 156.2629,0 z"
         id="path8199"
         inkscape:connector-curvature="0" />
      <text
         id="text8225"
         y="292.01083"
         x="1202.8713"
         style="font-style:normal;font-weight:normal;font-size:10.58333302px;line-height:1.25;font-family:sans-serif;letter-spacing:0px;word-spacing:0px;fill:#000000;fill-opacity:1;stroke:none;stroke-width:0.26458332"
         xml:space="preserve"><tspan
           style="stroke-width:0.26458332"
           y="292.01083"
           x="1202.8713"
           id="tspan8223"
           sodipodi:role="line">      Documents removed by treshold       Words removed by treshold               Tokens removed by treshold</tspan></text>
      <text
         id="text8229"
         y="810.21594"
         x="1373.5656"
         style="font-style:normal;font-weight:normal;font-size:10.58333302px;line-height:1.25;font-family:sans-serif;letter-spacing:0px;word-spacing:0px;fill:#000000;fill-opacity:1;stroke:none;stroke-width:0.26458332"
         xml:space="preserve"><tspan
           style="stroke-width:0.26458332"
           y="810.21594"
           x="1373.5656"
           id="tspan8227"
           sodipodi:role="line">Treshold (min. no. of documents appearing)</tspan></text>
      <text
         transform="scale(-1)"
         id="text8233"
         y="-620.79266"
         x="-1211.5055"
         style="font-style:normal;font-weight:normal;font-size:10.58333302px;line-height:1.25;font-family:sans-serif;letter-spacing:0px;word-spacing:0px;writing-mode:vertical-lr;fill:#000000;fill-opacity:1;stroke:none;stroke-width:0.26458332"
         xml:space="preserve"><tspan
           rotate="0 0 0 0 0 0 0 0 0 0 0 0 0 0 0 0 0 0 0 0 0 0 0 0 0 0 0 0"
           style="writing-mode:tb-rl;stroke-width:0.26458332"
           y="-1211.5055"
           x="-620.79266"
           id="tspan8231"
           sodipodi:role="line">Number of documents removed</tspan></text>
      <text
         transform="scale(-1)"
         id="text8233-3"
         y="-607.03412"
         x="-1384.0123"
         style="font-style:normal;font-weight:normal;font-size:10.58333302px;line-height:1.25;font-family:sans-serif;letter-spacing:0px;word-spacing:0px;writing-mode:vertical-lr;fill:#000000;fill-opacity:1;stroke:none;stroke-width:0.26458332"
         xml:space="preserve"><tspan
           rotate="0 0 0 0 0 0 0 0 0 0 0 0 0 0 0 0 0 0 0 0 0 0 0 0"
           style="writing-mode:tb-rl;stroke-width:0.26458332"
           y="-1384.0123"
           x="-607.03412"
           id="tspan8231-6"
           sodipodi:role="line">Number of words removed</tspan></text>
      <text
         transform="scale(-1)"
         id="text8233-3-1"
         y="-608.09247"
         x="-1557.5776"
         style="font-style:normal;font-weight:normal;font-size:10.58333302px;line-height:1.25;font-family:sans-serif;letter-spacing:0px;word-spacing:0px;writing-mode:vertical-lr;fill:#000000;fill-opacity:1;stroke:none;stroke-width:0.26458332"
         xml:space="preserve"><tspan
           rotate="0 0 0 0 0 0 0 0 0 0 0 0 0 0 0 0 0 0 0 0 0 0 0 0 0"
           style="writing-mode:tb-rl;stroke-width:0.26458332"
           y="-1557.5776"
           x="-608.09247"
           id="tspan8231-6-2"
           sodipodi:role="line">Number of tokens removed</tspan></text>
      <text
         id="text8273"
         y="324.3656"
         x="1377.1929"
         style="font-style:normal;font-weight:normal;font-size:10.58333302px;line-height:1.25;font-family:sans-serif;letter-spacing:0px;word-spacing:0px;writing-mode:lr-tb;fill:#000000;fill-opacity:1;stroke:none;stroke-width:0.26458332"
         xml:space="preserve"><tspan
           style="font-size:6.3499999px;writing-mode:lr-tb;stroke-width:0.26458332"
           y="324.3656"
           x="1377.1929"
           id="tspan8271"
           sodipodi:role="line">400</tspan></text>
      <text
         id="text8273-1"
         y="439.72369"
         x="1377.1929"
         style="font-style:normal;font-weight:normal;font-size:10.58333302px;line-height:1.25;font-family:sans-serif;letter-spacing:0px;word-spacing:0px;writing-mode:lr-tb;fill:#000000;fill-opacity:1;stroke:none;stroke-width:0.26458332"
         xml:space="preserve"><tspan
           style="font-size:6.3499999px;writing-mode:lr-tb;stroke-width:0.26458332"
           y="439.72369"
           x="1377.1929"
           id="tspan8271-9"
           sodipodi:role="line">380</tspan></text>
      <text
         id="text8273-1-4"
         y="668.85333"
         x="1377.722"
         style="font-style:normal;font-weight:normal;font-size:10.58333302px;line-height:1.25;font-family:sans-serif;letter-spacing:0px;word-spacing:0px;writing-mode:lr-tb;fill:#000000;fill-opacity:1;stroke:none;stroke-width:0.26458332"
         xml:space="preserve"><tspan
           style="font-size:6.3499999px;writing-mode:lr-tb;stroke-width:0.26458332"
           y="668.85333"
           x="1377.722"
           id="tspan8271-9-7"
           sodipodi:role="line">340</tspan></text>
      <text
         id="text8273-1-4-8"
         y="783.15375"
         x="1377.722"
         style="font-style:normal;font-weight:normal;font-size:10.58333302px;line-height:1.25;font-family:sans-serif;letter-spacing:0px;word-spacing:0px;writing-mode:lr-tb;fill:#000000;fill-opacity:1;stroke:none;stroke-width:0.26458332"
         xml:space="preserve"><tspan
           style="font-size:6.3499999px;writing-mode:lr-tb;stroke-width:0.26458332"
           y="783.15375"
           x="1377.722"
           id="tspan8271-9-7-4"
           sodipodi:role="line">320</tspan></text>
      <text
         id="text8273-5"
         y="352.94095"
         x="1550.229"
         style="font-style:normal;font-weight:normal;font-size:10.58333302px;line-height:1.25;font-family:sans-serif;letter-spacing:0px;word-spacing:0px;writing-mode:lr-tb;fill:#000000;fill-opacity:1;stroke:none;stroke-width:0.26458332"
         xml:space="preserve"><tspan
           style="font-size:6.3499999px;writing-mode:lr-tb;stroke-width:0.26458332"
           y="352.94095"
           x="1550.229"
           id="tspan8271-0"
           sodipodi:role="line">900</tspan></text>
      <text
         id="text8273-5-3"
         y="457.18655"
         x="1550.229"
         style="font-style:normal;font-weight:normal;font-size:10.58333302px;line-height:1.25;font-family:sans-serif;letter-spacing:0px;word-spacing:0px;writing-mode:lr-tb;fill:#000000;fill-opacity:1;stroke:none;stroke-width:0.26458332"
         xml:space="preserve"><tspan
           style="font-size:6.3499999px;writing-mode:lr-tb;stroke-width:0.26458332"
           y="457.18655"
           x="1550.229"
           id="tspan8271-0-6"
           sodipodi:role="line">800</tspan></text>
      <text
         id="text8273-5-3-1"
         y="666.737"
         x="1550.229"
         style="font-style:normal;font-weight:normal;font-size:10.58333302px;line-height:1.25;font-family:sans-serif;letter-spacing:0px;word-spacing:0px;writing-mode:lr-tb;fill:#000000;fill-opacity:1;stroke:none;stroke-width:0.26458332"
         xml:space="preserve"><tspan
           style="font-size:6.3499999px;writing-mode:lr-tb;stroke-width:0.26458332"
           y="666.737"
           x="1550.229"
           id="tspan8271-0-6-0"
           sodipodi:role="line">600</tspan></text>
      <text
         id="text8273-5-3-1-6"
         y="770.98328"
         x="1550.229"
         style="font-style:normal;font-weight:normal;font-size:10.58333302px;line-height:1.25;font-family:sans-serif;letter-spacing:0px;word-spacing:0px;writing-mode:lr-tb;fill:#000000;fill-opacity:1;stroke:none;stroke-width:0.26458332"
         xml:space="preserve"><tspan
           style="font-size:6.3499999px;writing-mode:lr-tb;stroke-width:0.26458332"
           y="770.98328"
           x="1550.229"
           id="tspan8271-0-6-0-3"
           sodipodi:role="line">500</tspan></text>
      <text
         id="text8273-2"
         y="318.54468"
         x="1211.5651"
         style="font-style:normal;font-weight:normal;font-size:10.58333302px;line-height:1.25;font-family:sans-serif;letter-spacing:0px;word-spacing:0px;writing-mode:lr-tb;fill:#000000;fill-opacity:1;stroke:none;stroke-width:0.26458332"
         xml:space="preserve"><tspan
           style="font-size:6.3499999px;writing-mode:lr-tb;stroke-width:0.26458332"
           y="318.54468"
           x="1211.5651"
           id="tspan8271-06"
           sodipodi:role="line">5</tspan></text>
      <text
         id="text8273-2-1"
         y="410.61945"
         x="1211.5651"
         style="font-style:normal;font-weight:normal;font-size:10.58333302px;line-height:1.25;font-family:sans-serif;letter-spacing:0px;word-spacing:0px;writing-mode:lr-tb;fill:#000000;fill-opacity:1;stroke:none;stroke-width:0.26458332"
         xml:space="preserve"><tspan
           style="font-size:6.3499999px;writing-mode:lr-tb;stroke-width:0.26458332"
           y="410.61945"
           x="1211.5651"
           id="tspan8271-06-5"
           sodipodi:role="line">4</tspan></text>
      <text
         id="text8273-2-1-5"
         y="686.31573"
         x="1211.5651"
         style="font-style:normal;font-weight:normal;font-size:10.58333302px;line-height:1.25;font-family:sans-serif;letter-spacing:0px;word-spacing:0px;writing-mode:lr-tb;fill:#000000;fill-opacity:1;stroke:none;stroke-width:0.26458332"
         xml:space="preserve"><tspan
           style="font-size:6.3499999px;writing-mode:lr-tb;stroke-width:0.26458332"
           y="686.31573"
           x="1211.5651"
           id="tspan8271-06-5-4"
           sodipodi:role="line">1</tspan></text>
      <text
         id="text8273-2-1-5-7"
         y="777.86194"
         x="1211.5651"
         style="font-style:normal;font-weight:normal;font-size:10.58333302px;line-height:1.25;font-family:sans-serif;letter-spacing:0px;word-spacing:0px;writing-mode:lr-tb;fill:#000000;fill-opacity:1;stroke:none;stroke-width:0.26458332"
         xml:space="preserve"><tspan
           style="font-size:6.3499999px;writing-mode:lr-tb;stroke-width:0.26458332"
           y="777.86194"
           x="1211.5651"
           id="tspan8271-06-5-4-6"
           sodipodi:role="line">0</tspan></text>
    </g>
  </g>
</svg>
