<?xml version="1.0" encoding="UTF-8" standalone="no"?>
<!-- Created with Inkscape (http://www.inkscape.org/) -->

<svg
   xmlns:dc="http://purl.org/dc/elements/1.1/"
   xmlns:cc="http://creativecommons.org/ns#"
   xmlns:rdf="http://www.w3.org/1999/02/22-rdf-syntax-ns#"
   xmlns:svg="http://www.w3.org/2000/svg"
   xmlns="http://www.w3.org/2000/svg"
   xmlns:sodipodi="http://sodipodi.sourceforge.net/DTD/sodipodi-0.dtd"
   xmlns:inkscape="http://www.inkscape.org/namespaces/inkscape"
   width="297mm"
   height="210mm"
   viewBox="0 0 297 210"
   version="1.1"
   id="svg8"
   inkscape:version="0.92.2 5c3e80d, 2017-08-06"
   sodipodi:docname="drawing.svg">
  <defs
     id="defs2" />
  <sodipodi:namedview
     id="base"
     pagecolor="#ffffff"
     bordercolor="#666666"
     borderopacity="1.0"
     inkscape:pageopacity="0.0"
     inkscape:pageshadow="2"
     inkscape:zoom="2"
     inkscape:cx="213.20617"
     inkscape:cy="209.23163"
     inkscape:document-units="mm"
     inkscape:current-layer="layer1"
     showgrid="false"
     inkscape:window-width="1680"
     inkscape:window-height="995"
     inkscape:window-x="0"
     inkscape:window-y="27"
     inkscape:window-maximized="1"
     inkscape:snap-global="false" />
  <metadata
     id="metadata5">
    <rdf:RDF>
      <cc:Work
         rdf:about="">
        <dc:format>image/svg+xml</dc:format>
        <dc:type
           rdf:resource="http://purl.org/dc/dcmitype/StillImage" />
        <dc:title></dc:title>
      </cc:Work>
    </rdf:RDF>
  </metadata>
  <g
     inkscape:label="Layer 1"
     inkscape:groupmode="layer"
     id="layer1"
     transform="translate(0,-87)">
    <text
       xml:space="preserve"
       style="font-style:normal;font-weight:normal;font-size:7.05555534px;line-height:1.25;font-family:sans-serif;letter-spacing:0px;word-spacing:0px;fill:#000000;fill-opacity:1;stroke:none;stroke-width:0.26458332"
       x="88.694542"
       y="330.5322"
       id="text121"><tspan
         sodipodi:role="line"
         id="tspan119"
         x="88.694542"
         y="336.54388"
         style="font-size:7.05555534px;stroke-width:0.26458332" /></text>
    <text
       xml:space="preserve"
       style="font-style:normal;font-weight:normal;font-size:7.05555534px;line-height:1.25;font-family:sans-serif;letter-spacing:0px;word-spacing:0px;fill:#000000;fill-opacity:1;stroke:none;stroke-width:0.26458332"
       x="88.694542"
       y="330.5322"
       id="text125"><tspan
         sodipodi:role="line"
         id="tspan123"
         x="88.694542"
         y="336.54388"
         style="font-size:7.05555534px;stroke-width:0.26458332" /></text>
    <path
       inkscape:connector-curvature="0"
       id="path109"
       d="M 16.99247,187.49252 V 88.27377 h 132.29168 132.29167 c 0.54835,9.2428 -0.73237,6.88468 -8.0698,6.87917 -4.84497,0 -7.54062,0.0945 -7.54062,0.26428 0,0.17548 -38.78331,0.28671 -115.42448,0.33103 l -115.42449,0.0667 115.42449,0.0658 115.42448,0.0659 v 22.35699 22.357 l -115.42448,0.0668 -115.42449,0.0668 115.42449,0.0658 115.42448,0.0658 v 22.35699 22.35699 l -115.42448,0.0668 -115.42449,0.0668 115.42449,0.0658 115.42448,0.0658 v 22.35729 22.35729 h -0.66146 -0.66146 v -3.96875 -3.96875 h -7.54062 -7.54063 v 3.96843 3.96842 l -107.2224,0.0668 -107.2224,0.0668 107.2224,0.0658 107.2224,0.0658 v 22.225 22.225 h 7.54063 7.54062 v -22.225 -22.225 h 0.66146 0.66146 v 22.225 22.225 h 7.54062 c 21.70999,-63.5254 14.60426,0.26458 -74.34791,0.26458 -54.76876,0 -82.41772,-0.0888 -82.41772,-0.26458 0,-0.1702 -2.68993,-0.26458 -7.54062,-0.26458 -4.8507,0 -7.54063,0.0944 -7.54063,0.26458 0,0.14552 -0.29765,0.26458 -0.66146,0.26458 -0.3638,0 -0.66145,-0.11906 -0.66145,-0.26458 0,-0.1702 -2.68994,-0.26458 -7.54063,-0.26458 -4.85069,0 -7.54062,0.0944 -7.54062,0.26458 0,0.14552 -0.29766,0.26458 -0.66146,0.26458 -0.36381,0 -0.66146,-0.11906 -0.66146,-0.26458 0,-0.1702 -2.68993,-0.26458 -7.54063,-0.26458 -4.85069,0 -7.54062,0.0944 -7.54062,0.26458 0,0.17113 -3.1309,0.26458 -8.86354,0.26458 -5.73264,0 -8.86355,-0.0934 -8.86355,-0.26458 0,-0.1702 -2.68993,-0.26458 -7.54062,-0.26458 -4.8507,0 -7.54063,0.0944 -7.54063,0.26458 0,0.14552 -0.20836,0.27295 -0.46302,0.28318 -0.39201,0.0157 -0.38186,0.0504 0.0661,0.22605 0.29104,0.11409 55.7444,0.15192 123.22969,0.0841 220.74967,-14.2872 -137.31828,43.42741 -141.88277,-88.43496 z m 13.75829,87.7093 c 0,-1.38908 -0.11106,-2.51354 -0.24825,-2.51354 -0.13654,0 -0.63583,0.35399 -1.10953,0.78665 -0.89337,0.81597 -0.86017,1.42121 0.0469,0.85474 0.49465,-0.30892 0.51714,-0.24234 0.51714,1.53137 0,1.47189 0.0819,1.85432 0.39687,1.85432 0.32493,0 0.39688,-0.45567 0.39688,-2.51354 z m 33.15526,-0.0654 c -2.06477,-0.0446 -5.51759,-0.0448 -7.67292,-2.2e-4 -2.15533,0.0445 -0.46598,0.0811 3.75413,0.0812 4.2201,1.2e-4 5.98356,-0.0363 3.91879,-0.081 z m 65.61666,0 c -2.06477,-0.0446 -5.51758,-0.0448 -7.67291,-2.2e-4 -2.15534,0.0445 -0.46598,0.0811 3.75413,0.0812 4.2201,1.2e-4 5.98355,-0.0363 3.91878,-0.081 z m 16.40417,0 c -2.06477,-0.0446 -5.51758,-0.0448 -7.67292,-2.2e-4 -2.15533,0.0445 -0.46597,0.0811 3.75413,0.0812 4.22011,1.2e-4 5.98356,-0.0363 3.91879,-0.081 z m 20.02601,-0.997 v -1.19475 l -7.47448,0.0703 -7.47448,0.0703 -0.0814,1.12448 -0.0814,1.12448 h 7.55584 7.55584 z m 16.61469,-0.5912 -0.0782,-1.78593 h -7.54063 -7.54063 l -0.0782,1.78593 -0.0782,1.78594 h 7.69709 7.69709 z m 16.40729,0.66146 -0.0814,-1.12448 h -7.54062 -7.54063 l -0.0814,1.12448 -0.0814,1.12448 h 7.70335 7.70334 z m 16.4551,-2.05052 v -3.175 h -7.54062 -7.54063 v 3.175 3.175 h 7.54063 7.54062 z m 16.40417,-3.04271 v -6.21771 h -7.54063 -7.54062 v 6.21771 6.21771 h 7.54062 7.54063 z m 16.40417,-2.24896 v -8.46666 h -7.54063 -7.54063 v 8.46666 8.46667 h 7.54063 7.54063 z M 27.47956,231.84639 c 0.36977,-0.77543 0.37688,-0.98814 0.0553,-1.65365 -0.30955,-0.64062 -0.52906,-0.76376 -1.36151,-0.76376 -1.07723,0 -1.2519,-0.48886 -0.368,-1.02997 0.3781,-0.23147 0.5508,-0.19578 0.82292,0.17008 0.40415,0.54335 0.94752,0.61163 0.94752,0.11906 0,-0.58699 -0.59783,-0.97896 -1.49312,-0.97896 -1.15042,0 -1.68188,0.79425 -1.68188,2.51354 0,1.75179 0.52705,2.51354 1.73908,2.51354 0.77849,0 0.97875,-0.13302 1.33968,-0.88988 z m -1.83797,0.0554 c -0.59121,-0.33086 -0.57205,-1.46127 0.0302,-1.78361 0.78682,-0.42109 1.23069,0.0972 1.14157,1.33299 -0.0402,0.55679 -0.59845,0.77149 -1.1718,0.45062 z m 5.54506,0.15065 c 0.37689,-0.57521 0.39811,-0.82191 0.1336,-1.55338 -0.17294,-0.47827 -0.24359,-1.05422 -0.15699,-1.2799 0.53146,-1.38496 -1.8325,-2.15077 -2.67412,-0.86628 -0.32237,0.492 -0.35482,0.76882 -0.13768,1.17456 0.188,0.35127 0.19436,0.58632 0.0188,0.69482 -0.41167,0.25443 -0.31266,1.63508 0.15048,2.09821 0.68081,0.68082 2.14035,0.53407 2.66591,-0.26803 z m -1.97043,-0.16286 c -0.55281,-0.55282 -0.19933,-1.79917 0.51027,-1.79917 0.26742,0 1.02431,0.78203 1.02431,1.05833 0,0.2763 -0.75689,1.05834 -1.02431,1.05834 -0.10602,0 -0.33565,-0.14288 -0.51027,-0.3175 z m 0.0359,-2.743 c -0.26868,-0.70017 0.36943,-1.09255 0.90522,-0.55662 0.40346,0.40357 0.4115,0.49264 0.0643,0.71222 -0.56208,0.35543 -0.78725,0.31929 -0.96948,-0.1556 z m -6.17427,-43.90304 c 0,-1.38909 -0.11106,-2.51355 -0.24826,-2.51355 -0.13654,0 -0.63582,0.354 -1.10952,0.78666 -0.89338,0.81597 -0.86017,1.4212 0.0469,0.85473 0.49465,-0.30891 0.51713,-0.24234 0.51713,1.53137 0,1.4719 0.0819,1.85433 0.39687,1.85433 0.32493,0 0.39688,-0.45567 0.39688,-2.51354 z m 4.41157,1.81909 c 0.41338,-0.63091 0.41798,-0.75899 0.0502,-1.39974 -0.29647,-0.51656 -0.33492,-0.86184 -0.14372,-1.29035 0.55098,-1.23479 -1.56502,-2.24116 -2.5794,-1.22677 -0.48229,0.48228 -0.52704,0.80715 -0.1438,1.044 0.14958,0.0924 0.49312,-0.10502 0.76342,-0.43882 0.42111,-0.52005 0.5526,-0.55617 0.91865,-0.25237 0.59447,0.49336 0.53488,0.78119 -0.23426,1.13164 -0.82112,0.37413 -0.84683,0.68247 -0.0661,0.79335 0.41788,0.0593 0.6193,0.29135 0.67577,0.77835 0.10961,0.94511 -0.70363,1.26329 -1.31117,0.51301 -0.51109,-0.63117 -1.01824,-0.71454 -1.01824,-0.16738 0,1.28759 2.3281,1.67583 3.08865,0.51508 z m 3.25723,0.43207 c 1.33282,-0.71331 0.71573,-3.17721 -0.79574,-3.17721 -0.52374,0 -0.78765,-0.13297 -0.78765,-0.39687 0,-0.28663 0.29399,-0.39688 1.05834,-0.39688 0.76435,0 1.05833,-0.11024 1.05833,-0.39687 0,-0.29914 -0.3214,-0.39688 -1.30509,-0.39688 -1.39271,0 -1.37604,-0.0171 -1.73839,1.78369 l -0.17258,0.85765 1.17115,-0.16052 c 1.26947,-0.174 1.61391,0.12935 1.33928,1.17953 -0.20943,0.80088 -0.93418,0.96299 -1.45113,0.32459 -0.51109,-0.63117 -1.01824,-0.71454 -1.01824,-0.16738 0,0.98937 1.5347,1.53961 2.64172,0.94715 z M 24.0714,142.44718 c -0.0599,-0.1819 -0.5541,-0.39026 -1.09826,-0.46302 l -0.98939,-0.13229 0.94392,-0.9118 c 0.99357,-0.95975 1.27021,-2.22796 0.62643,-2.87174 -0.77065,-0.77065 -2.8575,-0.1192 -2.8575,0.89202 0,0.54716 0.50714,0.46379 1.01824,-0.16738 0.2882,-0.35591 0.60163,-0.48394 0.9023,-0.36857 0.75612,0.29015 0.52638,1.19853 -0.55927,2.21134 -0.56099,0.52335 -1.16049,1.21944 -1.33222,1.54686 -0.30991,0.59085 -0.29814,0.59531 1.57119,0.59531 1.38843,0 1.85482,-0.0869 1.77456,-0.33073 z m 3.12318,-0.21577 c 0.35378,-0.39092 0.49458,-0.95092 0.49458,-1.96704 0,-1.66593 -0.58234,-2.51354 -1.7269,-2.51354 -1.02124,0 -1.5615,0.86964 -1.5615,2.51354 0,0.78229 0.17097,1.58156 0.41188,1.9255 0.52707,0.75249 1.71971,0.77329 2.38194,0.0415 z m -1.68257,-0.30017 c -0.46589,-0.46589 -0.40689,-2.9831 0.0794,-3.38666 0.31664,-0.26278 0.47712,-0.26278 0.79375,0 0.75057,0.62291 0.42043,3.70416 -0.39687,3.70416 -0.0873,0 -0.30163,-0.14287 -0.47625,-0.3175 z m 5.96772,0.51594 c -0.0599,-0.1819 -0.5541,-0.39026 -1.09826,-0.46302 l -0.98939,-0.13229 0.94393,-0.9118 c 0.99356,-0.95975 1.2702,-2.22796 0.62642,-2.87174 -0.77065,-0.77065 -2.8575,-0.1192 -2.8575,0.89202 0,0.54716 0.50715,0.46379 1.01824,-0.16738 0.2882,-0.35591 0.60164,-0.48394 0.90231,-0.36857 0.75611,0.29015 0.52637,1.19853 -0.55928,2.21134 -0.56098,0.52335 -1.16049,1.21944 -1.33222,1.54686 -0.30991,0.59085 -0.29814,0.59531 1.57119,0.59531 1.38843,0 1.85483,-0.0869 1.77456,-0.33073 z M 24.0714,97.46804 c -0.0599,-0.1819 -0.5541,-0.39026 -1.09826,-0.46302 l -0.98939,-0.13229 0.94392,-0.9118 c 0.99357,-0.95975 1.27021,-2.22796 0.62643,-2.87174 -0.77065,-0.77065 -2.8575,-0.1192 -2.8575,0.89202 0,0.54716 0.50714,0.4638 1.01824,-0.16738 0.2882,-0.35591 0.60163,-0.48394 0.9023,-0.36856 0.75611,0.29015 0.52637,1.19853 -0.55927,2.21133 -0.56099,0.52335 -1.16049,1.21944 -1.33223,1.54686 -0.30991,0.59085 -0.29813,0.59531 1.5712,0.59531 1.38843,0 1.85482,-0.0869 1.77456,-0.33073 z m 3.40812,-0.55916 c 0.36977,-0.77542 0.37688,-0.98813 0.0553,-1.65364 -0.30955,-0.64062 -0.52906,-0.76376 -1.36151,-0.76376 -1.07723,0 -1.2519,-0.48886 -0.368,-1.02997 0.3781,-0.23147 0.5508,-0.19578 0.82292,0.17008 0.40415,0.54335 0.94752,0.61163 0.94752,0.11906 0,-0.58699 -0.59783,-0.97896 -1.49312,-0.97896 -1.15042,0 -1.68188,0.79425 -1.68188,2.51354 0,1.75179 0.52705,2.51354 1.73908,2.51354 0.77849,0 0.97875,-0.13302 1.33968,-0.88989 z m -1.83797,0.0554 c -0.59121,-0.33086 -0.57205,-1.46127 0.0302,-1.78361 0.78682,-0.42109 1.23069,0.0972 1.14157,1.33299 -0.0402,0.55679 -0.59845,0.77149 -1.1718,0.45062 z m 5.25289,0.29271 c 0.69491,-0.76787 0.70331,-3.16514 0.0138,-3.92784 -1.0093,-1.11637 -2.80327,-0.47749 -2.80327,0.99833 0,1.16565 0.55816,1.70457 1.6352,1.57883 0.78351,-0.0915 0.91172,-0.0354 0.80987,0.35404 -0.22184,0.84831 -0.81181,1.13264 -1.34638,0.64886 -0.46602,-0.42174 -1.09869,-0.58511 -1.09869,-0.28371 0,1.17446 1.90736,1.60625 2.78951,0.63149 z m -1.67826,-2.15701 c -0.70454,-0.70454 -0.0504,-1.98466 0.83959,-1.64313 0.56275,0.21595 0.5718,1.58518 0.0119,1.80004 -0.53286,0.20447 -0.48045,0.21413 -0.85149,-0.15691 z"
       style="fill:#fdfdfd;stroke-width:0.26458335"
       sodipodi:nodetypes="cccccsscccccccccccccccccccccccccccccccccccccccccssssssssssssssscccccsscsscccccccccccccccccccccccccccccccccccccccccccccccccccccccccccccccccccccccccsccssssccccccccccccccccsssccccccssccsssccccccccccssccssssscccccscccccssccccsccsssccccccsccccccssccccscccccssccscscccsccsssscccccccccscccsccsccs" />
    <path
       inkscape:connector-curvature="0"
       id="path107"
       d="m 167.39001,273.48211 0.0181,-1.71979 h 7.54062 7.54063 l 0.0196,1.78699 0.0196,1.787 -0.0979,-1.72085 -0.0979,-1.72085 h -7.38416 -7.38416 l -0.0963,1.65364 -0.0963,1.65365 0.0181,-1.71979 z m 16.39631,0.72956 0.0259,-1.12644 h 7.54063 7.54062 l 0.026,1.12644 0.026,1.12645 -0.10732,-1.0603 -0.10732,-1.0603 h -7.3779 -7.37791 l -0.10731,1.0603 -0.10731,1.0603 0.0259,-1.12645 z m -29.01207,-1.19198 c 2.07367,-0.0447 5.46695,-0.0447 7.54063,0 2.07367,0.0447 0.37703,0.0813 -3.77032,0.0813 -4.14734,0 -5.84398,-0.0366 -3.77031,-0.0813 z m 65.76514,-10.0543 c 2.15534,-0.0445 5.60815,-0.0444 7.67292,2.3e-4 2.06477,0.0447 0.30132,0.0811 -3.91879,0.081 -4.2201,-1.2e-4 -5.90946,-0.0366 -3.75413,-0.0812 z"
       style="fill:#d1d1d1;stroke-width:0.26458335"
       sodipodi:nodetypes="ccccccccccccccccccccccccccccssssccccc" />
    <path
       inkscape:connector-curvature="0"
       id="path105"
       d="m 48.51967,282.47794 c 0,-0.3638 0.0601,-0.51263 0.13345,-0.33073 0.0734,0.1819 0.0734,0.47956 0,0.66146 -0.0734,0.1819 -0.13345,0.0331 -0.13345,-0.33073 z m 94.98542,0 c 0,-0.3638 0.0601,-0.51263 0.13345,-0.33073 0.0734,0.1819 0.0734,0.47956 0,0.66146 -0.0734,0.1819 -0.13345,0.0331 -0.13345,-0.33073 z m -92.41767,-6.68436 c 0.11127,-0.11113 4.18332,-0.17057 9.04899,-0.13208 l 8.84669,0.07 -9.04899,0.13208 c -4.97695,0.0727 -8.95796,0.0412 -8.84669,-0.07 z m -15.62373,-0.11096 c 0.191,-0.0764 0.4192,-0.067 0.50712,0.0209 0.0879,0.0879 -0.0683,0.15046 -0.34726,0.13897 -0.30823,-0.0127 -0.37092,-0.0754 -0.15986,-0.15985 z m 48.80413,-0.003 c 0.25743,-0.0671 0.61462,-0.0627 0.79375,0.01 0.17913,0.0725 -0.0315,0.12736 -0.46805,0.12197 -0.43657,-0.005 -0.58313,-0.0647 -0.3257,-0.13177 z m 16.40417,0 c 0.25743,-0.0671 0.61462,-0.0627 0.79375,0.01 0.17913,0.0725 -0.0315,0.12736 -0.46806,0.12197 -0.43656,-0.005 -0.58312,-0.0647 -0.32569,-0.13177 z m 57.12355,-0.0151 c 22.65308,-0.0373 59.80058,-0.0373 82.55,0 22.74941,0.0373 4.21507,0.0678 -41.18743,0.0678 -45.40251,0 -64.01566,-0.0305 -41.36257,-0.0678 z m -6.85183,-1.38903 c 0,-0.65485 0.0516,-0.92274 0.11466,-0.59532 0.0631,0.32743 0.0631,0.86321 0,1.19063 -0.0631,0.32742 -0.11466,0.0595 -0.11466,-0.59531 z m 64.27788,-1.91411 -0.0562,-3.10473 -7.47448,-0.0746 -7.47448,-0.0746 7.48278,-0.0618 c 5.98135,-0.0495 7.50956,0.008 7.61622,0.28587 0.0734,0.19126 0.0949,1.64977 0.0479,3.24115 l -0.0856,2.89341 z m 16.46176,-3.11298 c 0,-3.41974 0.0377,-4.81872 0.0838,-3.10885 0.0461,1.70987 0.0461,4.50784 0,6.21771 -0.0461,1.70987 -0.0838,0.31088 -0.0838,-3.10886 z M 88.7607,230.68576 c 29.50435,-0.0371 77.7842,-0.0371 107.28855,0 29.50435,0.0371 5.36443,0.0674 -53.64427,0.0674 -59.0087,0 -83.14862,-0.0303 -53.64428,-0.0674 z m 176.21755,0.0151 c 0.25743,-0.0671 0.61462,-0.0627 0.79375,0.01 0.17913,0.0725 -0.0315,0.12737 -0.46806,0.12197 -0.43656,-0.005 -0.58313,-0.0647 -0.32569,-0.13177 z M 92.86175,185.70659 c 31.75992,-0.037 83.7307,-0.037 115.49063,0 31.75992,0.037 5.77453,0.0673 -57.74532,0.0673 -63.51985,0 -89.50524,-0.0303 -57.74531,-0.0673 z m 0,-44.97917 c 31.75992,-0.037 83.7307,-0.037 115.49063,0 31.75992,0.037 5.77453,0.0673 -57.74532,0.0673 -63.51985,0 -89.50524,-0.0303 -57.74531,-0.0673 z m 0,-44.97916 c 31.75992,-0.037 83.7307,-0.037 115.49063,0 31.75992,0.037 5.77453,0.0673 -57.74532,0.0673 -63.51985,0 -89.50524,-0.0303 -57.74531,-0.0673 z"
       style="fill:#a9a9a9;stroke-width:0.26458335"
       sodipodi:nodetypes="scssscssccccccccccccccccccccssssscsscccccccccsssssssscccccssssssssssss" />
    <path
       inkscape:connector-curvature="0"
       id="path103"
       d="m 39.68049,275.93011 c 2.07367,-0.0447 5.46695,-0.0447 7.54063,0 2.07367,0.0447 0.37703,0.0813 -3.77032,0.0813 -4.14734,0 -5.84398,-0.0366 -3.77031,-0.0813 z m 32.95682,-1.3e-4 c 2.15533,-0.0445 5.60814,-0.0444 7.67291,2.2e-4 2.06477,0.0447 0.30132,0.0811 -3.91879,0.081 -4.2201,-1.3e-4 -5.90946,-0.0367 -3.75412,-0.0812 z m 16.40416,0 c 2.15534,-0.0445 5.60815,-0.0444 7.67292,2.2e-4 2.06477,0.0447 0.30131,0.0811 -3.91879,0.081 -4.2201,-1.3e-4 -5.90946,-0.0367 -3.75413,-0.0812 z m 16.40417,0 c 2.15534,-0.0445 5.60815,-0.0444 7.67292,2.2e-4 2.06477,0.0447 0.30131,0.0811 -3.91879,0.081 -4.22011,-1.3e-4 -5.90946,-0.0367 -3.75413,-0.0812 z m -61.99484,-0.59579 -7.54062,-0.14472 7.45886,-0.0599 c 4.75292,-0.0382 7.51819,0.036 7.62239,0.20465 0.0899,0.14552 0.12673,0.23762 0.0818,0.20465 -0.045,-0.033 -3.47505,-0.12505 -7.6224,-0.20465 z m 29.18651,-0.19796 c 2.15533,-0.0445 5.60814,-0.0444 7.67291,2.2e-4 2.06477,0.0447 0.30132,0.0811 -3.91879,0.081 -4.2201,-1.3e-4 -5.90946,-0.0367 -3.75412,-0.0812 z m 16.40416,0 c 2.15534,-0.0445 5.60815,-0.0444 7.67292,2.2e-4 2.06477,0.0447 0.30132,0.0811 -3.91879,0.081 -4.2201,-1.3e-4 -5.90946,-0.0367 -3.75413,-0.0812 z m 16.40417,0 c 2.15534,-0.0445 5.60815,-0.0444 7.67292,2.2e-4 2.06477,0.0447 0.30131,0.0811 -3.91879,0.081 -4.22011,-1.3e-4 -5.90946,-0.0367 -3.75413,-0.0812 z m 142.64633,-8.26871 c 0,-4.72942 0.0359,-6.66419 0.0797,-4.29948 0.0438,2.36472 0.0438,6.23425 0,8.59896 -0.0439,2.36472 -0.0797,0.42995 -0.0797,-4.29948 z m 5.10728,-44.11866 c 2.07367,-0.0447 5.46696,-0.0447 7.54063,0 2.07367,0.0447 0.37703,0.0813 -3.77031,0.0813 -4.14735,0 -5.84399,-0.0366 -3.77032,-0.0813 z"
       style="fill:#898989;stroke-width:0.26458335"
       sodipodi:nodetypes="sssscccccccccccccccccccccccccccccccccccccsscsssss" />
    <path
       inkscape:connector-curvature="0"
       id="path101"
       d="m 56.08466,275.13636 c 2.07367,-0.0447 5.46696,-0.0447 7.54063,0 2.07367,0.0447 0.37703,0.0813 -3.77032,0.0813 -4.14734,0 -5.84398,-0.0366 -3.77031,-0.0813 z m 65.88125,0 c 2.07368,-0.0447 5.46696,-0.0447 7.54063,0 2.07367,0.0447 0.37703,0.0813 -3.77031,0.0813 -4.14735,0 -5.84399,-0.0366 -3.77032,-0.0813 z m 16.40417,0 c 2.07367,-0.0447 5.46696,-0.0447 7.54063,0 2.07367,0.0447 0.37703,0.0813 -3.77032,0.0813 -4.14734,0 -5.84398,-0.0366 -3.77031,-0.0813 z m 126.13421,-22.02717 c 0,-12.29651 0.0324,-17.3269 0.072,-11.17865 0.0396,6.14826 0.0396,16.20904 0,22.3573 -0.0396,6.14825 -0.072,1.11786 -0.072,-11.17865 z m -0.0206,-26.32604 c 2.6e-4,-2.18281 0.0414,-3.04057 0.0911,-1.90614 0.0497,1.13444 0.0494,2.92038 -8e-4,3.96875 -0.0501,1.04838 -0.0908,0.1202 -0.0904,-2.06261 z"
       style="fill:#6f6f6f;stroke-width:0.26458335"
       sodipodi:nodetypes="sssssssssssssssscsccc" />
    <path
       inkscape:connector-curvature="0"
       id="path97"
       d="m 151.13623,274.27586 v -1.05834 h 7.40833 7.40834 v 1.05834 1.05833 h -7.40834 -7.40833 z m 16.40417,-0.66146 v -1.71979 h 7.40833 7.40833 v 1.71979 1.71979 h -7.40833 -7.40833 z m 16.40416,0.66146 v -1.05834 h 7.40834 7.40833 v 1.05834 1.05833 h -7.40833 -7.40834 z m 16.40417,-1.98438 v -3.04271 h 7.40833 7.40834 v 3.04271 3.04271 h -7.40834 -7.40833 z m 16.40417,-3.04271 v -6.08541 h 7.40833 7.40833 v 6.08541 6.08542 h -7.40833 -7.40833 z m 16.40416,-2.38125 v -8.46666 h 7.40834 7.40833 v 8.46666 8.46667 h -7.40833 -7.40834 z m 16.40417,-17.72708 v -26.19375 h 7.40834 7.40833 v 26.19375 26.19375 h -7.40833 -7.40834 z M 265.9654,185.37586 V 95.41752 h 7.40833 7.40834 v 89.95834 89.95833 h -7.40834 -7.40833 z"
       style="fill:#272727;stroke-width:0.26458335"
       sodipodi:nodetypes="cccccccccccccccccccccccccccccccccccccccccccccccccccccccccccccccccccccccc" />
    <text
       xml:space="preserve"
       style="font-style:normal;font-weight:normal;font-size:10.58333302px;line-height:1.25;font-family:sans-serif;letter-spacing:0px;word-spacing:0px;fill:#000000;fill-opacity:1;stroke:none;stroke-width:0.26458332"
       x="20.167459"
       y="97.765015"
       id="text129"><tspan
         sodipodi:role="line"
         id="tspan127"
         x="20.167459"
         y="97.765015"
         style="font-size:7.05555534px;stroke-width:0.26458332">269</tspan></text>
    <text
       xml:space="preserve"
       style="font-style:normal;font-weight:normal;font-size:10.58333302px;line-height:1.25;font-family:sans-serif;letter-spacing:0px;word-spacing:0px;fill:#000000;fill-opacity:1;stroke:none;stroke-width:0.26458332"
       x="20.025354"
       y="142.75995"
       id="text129-3"><tspan
         sodipodi:role="line"
         id="tspan127-6"
         x="20.025354"
         y="142.75995"
         style="font-size:7.05555534px;stroke-width:0.26458332">202</tspan></text>
    <text
       xml:space="preserve"
       style="font-style:normal;font-weight:normal;font-size:10.58333302px;line-height:1.25;font-family:sans-serif;letter-spacing:0px;word-spacing:0px;fill:#000000;fill-opacity:1;stroke:none;stroke-width:0.26458332"
       x="19.703897"
       y="187.65781"
       id="text129-3-7"><tspan
         sodipodi:role="line"
         id="tspan127-6-5"
         x="19.703897"
         y="187.65781"
         style="font-size:7.05555534px;stroke-width:0.26458332">135</tspan></text>
    <text
       xml:space="preserve"
       style="font-style:normal;font-weight:normal;font-size:10.58333302px;line-height:1.25;font-family:sans-serif;letter-spacing:0px;word-spacing:0px;fill:#000000;fill-opacity:1;stroke:none;stroke-width:0.26458332"
       x="23.795069"
       y="232.7496"
       id="text129-3-7-3"><tspan
         sodipodi:role="line"
         id="tspan127-6-5-5"
         x="23.795069"
         y="232.7496"
         style="font-size:7.05555534px;stroke-width:0.26458332">68</tspan></text>
    <text
       xml:space="preserve"
       style="font-style:normal;font-weight:normal;font-size:10.58333302px;line-height:1.25;font-family:sans-serif;letter-spacing:0px;word-spacing:0px;fill:#000000;fill-opacity:1;stroke:none;stroke-width:0.26458332"
       x="27.885035"
       y="277.73334"
       id="text129-3-7-3-6"><tspan
         sodipodi:role="line"
         id="tspan127-6-5-5-2"
         x="27.885035"
         y="277.73334"
         style="font-size:7.05555534px;stroke-width:0.26458332">1</tspan></text>
    <text
       xml:space="preserve"
       style="font-style:normal;font-weight:normal;font-size:10.58333302px;line-height:1.25;font-family:sans-serif;letter-spacing:0px;word-spacing:0px;fill:#000000;fill-opacity:1;stroke:none;stroke-width:0.26458332"
       x="36.764675"
       y="284.08423"
       id="text247"><tspan
         sodipodi:role="line"
         id="tspan245"
         x="36.764675"
         y="284.08423"
         style="font-size:7.05555534px;stroke-width:0.26458332">159   25     22    14    12     11     9      8      7       6      5       4      3      2       1</tspan></text>
    <rect
       style="fill:#202020;fill-opacity:1;stroke:#202020;stroke-width:0.52120942;stroke-miterlimit:4;stroke-dasharray:none;stroke-opacity:1"
       id="rect5168"
       width="14.31314"
       height="0.11750488"
       x="134.97569"
       y="274.94803" />
    <rect
       style="fill:#202020;fill-opacity:1;stroke:#202020;stroke-width:0.52120942;stroke-miterlimit:4;stroke-dasharray:none;stroke-opacity:1"
       id="rect5168-3"
       width="14.31314"
       height="0.11750488"
       x="118.57154"
       y="274.94803" />
    <rect
       style="fill:#202020;fill-opacity:1;stroke:#202020;stroke-width:0.52120942;stroke-miterlimit:4;stroke-dasharray:none;stroke-opacity:1"
       id="rect5168-5"
       width="14.31314"
       height="0.11750488"
       x="102.16735"
       y="274.94803" />
    <rect
       style="fill:#202020;fill-opacity:1;stroke:#202020;stroke-width:0.52120942;stroke-miterlimit:4;stroke-dasharray:none;stroke-opacity:1"
       id="rect5168-5-6"
       width="14.31314"
       height="0.11750488"
       x="85.763191"
       y="274.94803" />
    <rect
       style="fill:#202020;fill-opacity:1;stroke:#202020;stroke-width:0.52120942;stroke-miterlimit:4;stroke-dasharray:none;stroke-opacity:1"
       id="rect5168-5-6-2"
       width="14.31314"
       height="0.11750488"
       x="69.359032"
       y="274.94803" />
    <rect
       style="fill:#202020;fill-opacity:1;stroke:#202020;stroke-width:0.52120942;stroke-miterlimit:4;stroke-dasharray:none;stroke-opacity:1"
       id="rect5168-5-6-9"
       width="14.31314"
       height="0.11750488"
       x="52.954868"
       y="274.94803" />
    <rect
       style="fill:#202020;fill-opacity:1;stroke:#202020;stroke-width:0.52120942;stroke-miterlimit:4;stroke-dasharray:none;stroke-opacity:1"
       id="rect5168-5-6-9-1"
       width="14.31314"
       height="0.11750488"
       x="36.550697"
       y="274.94803" />
  </g>
</svg>
